<svg width="32" height="32" viewBox="0 0 32 32" fill="none" xmlns="http://www.w3.org/2000/svg">
    <g clip-path="url(#clip0_3183_13810)">
        <path d="M28.5518 8.83249C28.7067 9.96146 30.4166 11.4834 30.8803 11.4478C31.1897 11.4212 31.3085 9.9734 31.3085 8.83249C31.3085 8.17902 31.3443 7.66737 30.9996 7.54785C30.4524 8.65382 29.016 8.88006 28.5518 8.83249Z" fill="#0F0E9A"/>
        <path d="M28.6465 8.33239C29.8812 8.33239 31.0112 7.34578 31.0112 6.47799C31.0112 6.07342 30.8205 5.7408 30.3336 5.68164C30.4166 5.78871 30.4524 5.87191 30.4524 6.06165C30.4524 6.71565 29.4558 7.44108 28.3739 7.44108C27.9811 7.44108 27.8623 7.71403 27.8623 7.85707C27.8623 8.19021 28.1835 8.33239 28.6467 8.33239" fill="#0F0E9A"/>
        <path d="M28.3854 6.98937C28.2193 6.98937 27.9811 6.98937 27.85 6.72819C27.743 6.51388 27.7786 6.16915 27.5767 6.01435C27.7786 6.0735 27.9928 6.0735 28.1596 6.0735C28.6951 6.0735 29.2067 5.70508 29.5988 5.70508C29.8576 5.70508 29.9408 5.87199 29.9408 6.03787C29.9408 6.56197 28.8853 6.98937 28.3854 6.98937Z" fill="#0F0E9A"/>
        <path d="M1.80579 16.3094C2.20932 16.3094 2.12598 13.8365 2.77986 13.8365C2.93442 13.8365 2.98162 13.9911 2.98162 14.1818C2.98162 14.7401 2.70846 15.5607 2.70846 16.0121C2.70846 16.2384 2.76758 16.3096 2.87478 16.3096C3.16022 16.3096 3.65918 13.5869 4.14657 13.5869C4.30113 13.5869 4.37202 13.7414 4.37202 13.8965C4.37202 14.467 3.64726 16.1072 3.64726 16.571C3.64726 16.6419 3.67111 16.7016 3.73042 16.7016C4.02779 16.7016 4.62184 15.4181 4.81151 14.7763C4.91853 14.4431 5.06133 14.2644 5.19204 14.2644C5.31081 14.2644 5.41784 14.3955 5.41784 14.669C5.41784 15.3109 4.82309 16.8206 4.30113 17.8316C3.89726 18.6156 3.26724 19.745 3.26724 20.3749C3.26724 20.6958 3.32585 21.0284 3.79006 21.4331C3.02917 21.3856 2.72004 21.3143 2.43546 20.7198C1.16419 23.2519 4.77606 23.0023 3.54006 25.2488C3.31427 24.8451 1.5321 24.4288 1.5321 22.0749C1.5321 20.0421 3.31427 18.8537 3.31427 18.009C3.31427 17.8433 3.25583 17.7005 3.10057 17.5694C2.70846 17.2362 2.69618 16.9638 2.38826 16.9638C2.16177 16.9638 1.88843 17.4863 2.17336 17.9499C2.26897 18.1045 2.35213 18.1993 2.35213 18.3422C2.35213 18.6748 1.82878 19.5661 1.46122 19.5661C1.09365 19.5661 0.807861 18.6518 0.807861 17.1769C0.807861 15.8692 1.10472 14.55 1.4728 14.55C1.57982 14.55 1.61561 14.6214 1.61561 14.7164C1.61561 14.871 1.56824 15.1801 1.56824 15.7025C1.56824 16.2615 1.69877 16.3094 1.80579 16.3094Z" fill="#0F0E9A"/>
        <path d="M4.83512 19.7923C5.33478 19.7923 5.74989 19.4233 5.74989 18.6038V17.3907C5.74989 16.9275 5.78568 16.4047 6.09516 16.0355C6.05954 16.1902 6.05954 16.3569 6.05954 16.511C6.05954 17.5334 6.62974 18.2352 6.62974 19.2216C6.62974 19.5895 6.52272 19.7921 6.23814 19.7921C5.95356 19.7921 5.98814 19.542 5.92849 19.542C5.88094 19.542 5.80971 19.6966 5.80971 19.8633C5.80971 20.1129 5.98814 20.5052 6.48675 20.5052C6.91518 20.5052 7.25941 20.1129 7.25941 19.6729C7.25941 18.6038 6.4278 17.4144 6.4278 16.2737C6.4278 15.7737 6.55833 15.4409 6.66535 15.1793C6.66535 17.5456 8.67331 19.2688 8.67331 20.2551C8.67331 20.4814 8.50734 20.6597 8.25785 20.6597C7.98382 20.6597 7.85346 20.4454 7.85346 20.2786C7.85346 20.1954 7.84119 20.1721 7.80592 20.1721C7.73503 20.1721 7.52082 20.4098 7.52082 20.7195C7.52082 21.1113 7.84119 21.5873 8.43576 21.5873C9.11246 21.5873 9.48106 21.016 9.48106 20.5054C9.48106 19.2574 7.04502 17.3672 7.04502 15.3463C7.04502 15.0014 7.10415 14.4427 7.35398 14.0147C5.78534 15.0249 5.29882 16.3688 5.29882 17.5459C5.29882 18.5683 5.2632 19.0784 4.74055 19.0784C4.46652 19.0784 4.39563 18.8293 4.30054 18.8293C4.22897 18.8293 4.19352 19.0431 4.19352 19.1023C4.19352 19.542 4.51476 19.7921 4.83495 19.7921M25.4277 7.91688C25.9509 7.91688 26.3437 7.67922 26.3437 7.53617C26.3437 7.48913 26.2723 7.45315 26.1172 7.45315C25.9621 7.45315 25.6535 7.44121 25.0707 7.34643C24.571 7.26271 24.1903 7.07296 24.0477 7.07296C24.0003 7.07296 23.9763 7.09649 23.9763 7.13212C23.9763 7.44121 24.5475 7.91688 25.4277 7.91688ZM22.8376 6.4072C22.9884 6.30584 23.6578 6.46619 24.524 6.03826C24.6182 5.98481 24.7244 5.95627 24.8326 5.95524C25.2493 5.95524 25.1416 6.43055 25.5231 6.43055C25.82 6.43055 26.201 6.18061 26.4268 6.18061C26.7813 6.18061 27.2923 7.29851 27.2923 7.8214C27.2923 8.428 26.3795 8.79625 25.2968 8.79625C23.7181 8.79625 22.7659 7.41786 22.7659 6.52603C22.7659 6.4546 22.802 6.43055 22.8376 6.4072ZM5.08495 24.2735C4.69318 24.369 4.06299 24.9862 4.06299 25.9624C4.06299 27.127 5.31075 28.9224 7.36643 28.9224C9.1007 28.9224 9.52878 27.722 9.52878 26.9127C9.52878 25.1175 8.42418 23.8572 6.98658 23.8572C6.20218 23.8572 5.50127 24.4287 5.50127 25.2719C5.50127 26.0572 6.09516 27.2337 7.50923 27.2337C8.17487 27.2337 8.56646 26.7582 8.56646 26.2117C8.56646 25.6651 8.07943 24.9398 7.3666 24.9398C7.15239 24.9398 6.99834 25.0815 6.99834 25.3077C6.99834 25.5928 7.39046 25.8785 7.87749 25.8785C7.99627 25.8785 8.09119 25.8552 8.13925 25.8311C8.16259 25.8668 8.17487 25.9264 8.17487 25.974C8.17487 26.2475 7.91276 26.4142 7.50923 26.4142C6.90342 26.4142 6.32061 25.9622 6.32061 25.2479C6.32061 24.8208 6.68921 24.5117 7.22379 24.5117C8.28154 24.5117 8.91138 25.4506 8.91138 26.3903C8.91138 27.2336 8.44838 27.722 7.49765 27.722C5.59619 27.722 4.66949 26.0096 5.08512 24.2734M17.7275 28.8629C17.7281 29.1253 17.9406 29.3377 18.2027 29.3384C18.4645 29.3384 18.6778 29.1246 18.6778 28.8631C18.6778 28.6016 18.4643 28.3869 18.2027 28.3869C17.9405 28.388 17.7281 28.6007 17.7276 28.8631M18.6486 31.2388C19.2183 31.2388 19.1891 31.1913 19.3673 31.1913C19.5456 31.1913 19.5577 31.2983 19.5577 31.3699C19.5577 31.6316 18.9747 31.9532 17.9415 31.9532C17.3352 31.9532 16.9671 31.6316 16.8601 31.275C16.2665 31.655 15.3633 31.9999 14.4719 31.9999C12.0364 31.9999 11.4183 30.9413 10.6579 30.5975C10.0749 30.3358 9.18403 30.8476 7.93679 29.4562C8.10312 29.492 8.32891 29.5041 8.50751 29.5041C9.59984 29.5041 10.182 28.9695 10.182 28.1129C10.182 28.0059 10.1702 27.8884 10.1581 27.7819C10.4911 27.9125 11.252 28.4822 11.4301 29.4918C11.4539 29.6112 11.941 29.7177 12.2496 29.7177C12.678 29.7177 13.2245 29.5392 13.3073 28.8387C14.7335 28.7199 15.6962 27.8761 15.8983 26.8053C16.4086 26.972 16.9906 27.4359 17.1332 27.6741C17.3352 27.6027 17.5729 27.567 17.8461 27.567C18.2259 27.567 18.6543 27.6385 19.1649 27.7935C19.1887 27.6387 19.2128 27.4482 19.4503 27.4482C19.8066 27.4482 19.7114 27.8405 19.8302 28.0654C19.89 28.1842 20.1877 28.2556 20.1877 28.4936C20.1877 28.7316 19.9965 28.8033 19.8782 28.8033C19.8302 28.8033 19.7712 28.7915 19.7349 28.7799C19.4977 28.8629 19.4859 30.5741 18.4875 30.5741C17.751 30.5741 17.0739 29.968 16.7766 29.2078C16.6929 28.9819 16.5155 28.8389 16.3485 28.8389C16.159 28.8389 16.052 28.8747 15.8263 29.1246C15.1849 29.825 14.1149 30.4312 12.7964 30.4312C12.3919 30.4312 12.0717 30.3954 11.988 30.3954C11.9406 30.3954 11.9406 30.4072 11.9406 30.419C11.9406 30.5025 12.3445 30.8239 13.224 30.8239C15.3149 30.8239 15.8263 29.6465 16.159 29.6465C16.2064 29.6465 16.3486 29.6465 16.4316 29.8367C16.9187 30.9768 17.9828 31.2387 18.6483 31.2387M25.8558 23.6671C25.6065 23.6671 24.2259 25.5099 23.3371 25.5099C23.1229 25.5099 22.945 25.1053 22.945 24.7976C22.945 24.6309 23.0511 24.5121 23.4325 24.4289C25.4754 23.9644 25.0235 22.4309 26.7692 22.4309C27.7315 22.4309 28.8018 23.0851 28.8018 24.5595C28.8018 26.1288 26.5695 28.0777 26.2363 28.0777C25.9626 28.0777 25.6658 27.6859 25.6658 27.4242C25.6658 27.3415 25.7015 27.2337 25.9391 27.1389C27.0781 26.6863 27.7315 25.641 27.7315 25.1053C27.7315 24.9865 27.6723 24.8692 27.5173 24.8692C27.3158 24.8692 26.4505 26.8416 25.4872 26.8416C24.8212 26.8416 24.1435 26.236 24.1435 25.9503C24.1435 25.475 26.0696 24.5951 26.0696 23.929C26.0696 23.679 25.9512 23.6673 25.8559 23.6673M27.1372 22.9303C26.9709 22.9303 26.793 23.0614 26.793 23.3829C26.793 23.7384 27.0664 23.9643 27.2211 24.0357C27.3041 24.0833 27.4353 24.1312 27.5646 24.1312C27.9099 24.1312 28.1832 24.0357 28.1832 23.7501C28.1832 23.3827 27.6483 22.9301 27.1374 22.9301M4.94232 9.16468C4.94318 9.42725 5.15566 9.64 5.41829 9.64086C5.68039 9.63965 5.89235 9.4269 5.89287 9.16468C5.89201 8.90263 5.68022 8.6904 5.41829 8.68936C5.15601 8.69005 4.94335 8.90228 4.94232 9.16468ZM4.32475 8.09486C4.32561 8.35691 4.53758 8.56915 4.79951 8.57018C5.06109 8.57018 5.27513 8.35587 5.27513 8.09486C5.27513 7.83385 5.06092 7.61937 4.79951 7.61937C4.53758 7.62041 4.32561 7.83264 4.32475 8.09469M3.89684 11.3519C3.62316 11.4233 3.05348 11.7564 3.05348 12.3503C3.05348 12.7785 3.38526 13.0518 3.8021 13.0518C4.01597 13.0518 4.17036 13.0042 4.2651 12.933C3.93263 12.6121 3.81386 12.2555 3.81386 11.8993C3.81386 11.6494 3.84964 11.4947 3.89684 11.3519ZM0.986218 11.5188C0.974288 11.5785 0.974288 11.6376 0.974288 11.6968C0.974288 12.2553 1.27114 12.5646 1.66326 12.5646C1.9596 12.5646 2.30486 12.3859 2.6133 11.9938C2.47187 12.0176 2.32872 12.0294 2.18522 12.0289C1.74625 12.0289 1.27097 11.9111 0.986045 11.5188M0.570068 12.5763C0.570068 13.4797 0.84341 13.908 1.33027 13.908C1.71081 13.908 2.2217 13.6345 2.82699 13.1115C2.36399 13.2189 2.00749 13.2895 1.68677 13.2895C1.25869 13.2895 0.926916 13.1233 0.570068 12.5765M3.64753 7.8214C3.70666 7.63113 3.75403 7.39399 3.75403 7.13212C3.75403 6.56166 3.49245 5.69336 2.6847 5.69336C2.2217 5.69336 1.88802 6.06178 1.88802 6.50199C1.88802 7.44139 2.82699 7.82123 3.64736 7.82123M2.63698 10.8172C2.24521 10.8172 1.81731 10.33 1.81731 9.89011C1.81731 9.65245 1.99521 9.35495 2.12626 9.35495C2.17381 9.35495 2.19767 9.39075 2.20925 9.47429C2.28083 10.0563 2.66067 10.3895 3.01769 10.5554C3.05348 10.5792 3.07665 10.5912 3.07665 10.6152C3.07665 10.6982 2.85085 10.8171 2.63664 10.8171M3.73069 9.36671C3.81264 9.47879 4.03965 9.61682 4.03965 9.70002C4.03965 9.86624 3.94422 10.0806 3.75403 10.0806C3.33789 10.0806 3.00542 9.4506 3.00542 9.09341C3.00542 8.86786 3.13647 8.84434 3.31385 8.84434C3.39753 8.84434 3.43263 8.8561 3.49245 8.89191C3.59947 8.95089 3.59947 9.18889 3.73052 9.36671M0.938673 10.8413C0.916197 10.8781 0.902884 10.9243 0.902884 10.9724C0.902884 11.0789 1.02166 11.1978 1.12833 11.1978C1.22377 11.1978 1.2829 11.1744 1.33027 11.1744C1.61537 11.1744 1.93608 11.3759 2.39978 11.3759C2.6726 11.3759 2.99366 11.2929 3.39771 11.0912C4.25283 10.6626 4.58633 9.60523 4.58633 9.42655C4.58633 9.20066 4.4048 9.22989 4.25283 9.02198C4.10155 8.81528 4.15964 8.63124 4.06316 8.53472C4.00767 8.4792 3.83789 8.47557 3.62316 8.4517C3.53636 8.44322 3.44923 8.43925 3.36209 8.43976C2.96997 8.43976 2.50524 8.48768 1.9838 8.82047C0.95285 9.47827 1.10465 10.5678 0.938846 10.8413M4.88319 10.3658C4.6216 10.6742 4.34826 11.1976 4.34826 11.7324C4.34826 12.3741 4.74107 12.9089 5.34688 12.9089C5.95269 12.9089 6.202 12.4099 6.202 11.8991C6.202 11.1028 5.47742 10.5436 4.88336 10.3656M2.34048 8.08328C2.34048 8.08328 1.99521 8.34429 1.56782 8.34429C1.05745 8.34429 0.653056 7.96427 0.653056 7.42962C0.653056 7.06068 0.84341 6.68067 1.28273 6.49023C1.27097 6.56184 1.27097 6.62099 1.27097 6.69243C1.27097 7.36978 1.65081 7.88125 2.34048 8.08328ZM23.2894 12.0292C23.2894 12.303 23.5157 12.5291 23.7857 12.5291C24.0612 12.5277 24.284 12.3048 24.2856 12.0292C24.2856 11.7563 24.0598 11.5307 23.7859 11.5307C23.5121 11.5307 23.2892 11.7563 23.2892 12.029M23.325 13.527C23.325 13.8352 23.5748 14.085 23.8827 14.085C24.1907 14.085 24.4405 13.835 24.4405 13.527C24.4348 13.2187 24.1805 12.9735 23.8724 12.9792C23.5722 12.9847 23.3303 13.2267 23.3248 13.527M21.613 14.5376C21.6139 14.9906 21.9809 15.3575 22.4336 15.3582C22.885 15.3582 23.2541 14.9892 23.2541 14.5376C23.2541 14.086 22.885 13.7172 22.4336 13.7172C21.9808 13.7179 21.6139 14.0848 21.613 14.5378M22.0527 12.8619C22.0534 13.1243 22.266 13.3369 22.5283 13.3372C22.7904 13.3365 23.0029 13.1241 23.0036 12.8619C23.0029 12.5997 22.7906 12.3871 22.5285 12.3864C22.2662 12.3871 22.0535 12.5993 22.0525 12.8617M20.4968 13.8127C20.4975 14.0742 20.7088 14.2863 20.97 14.2877C21.2321 14.2877 21.4463 14.0746 21.4463 13.8127C21.4463 13.5508 21.2321 13.3374 20.9699 13.3374C20.7085 13.3391 20.4974 13.5514 20.4968 13.8127ZM21.7197 11.0317C21.7197 11.4475 22.0644 11.7919 22.4804 11.7919C22.8964 11.7919 23.2418 11.4475 23.2418 11.0317C23.2418 10.6159 22.8971 10.2706 22.4804 10.2706C22.0637 10.2706 21.7197 10.6149 21.7197 11.0317ZM22.6116 9.56908C22.6116 9.81833 22.8136 10.0205 23.0629 10.0205H23.0634C23.3129 10.0278 23.5209 9.8313 23.528 9.58188C23.5352 9.33229 23.3388 9.1242 23.0895 9.11711C23.0809 9.11694 23.072 9.11694 23.0634 9.11711C22.8139 9.11711 22.6116 9.31949 22.6116 9.56908ZM20.4617 10.7103C20.461 10.9592 20.6621 11.1616 20.9109 11.1625C21.1604 11.1625 21.3625 10.9603 21.3625 10.7107C21.3625 10.4611 21.1604 10.2589 20.9109 10.2589C20.6625 10.2597 20.4614 10.4616 20.4617 10.7103ZM20.4019 12.2551C20.3991 12.6529 20.7192 12.9778 21.1168 12.9806C21.1194 12.9806 21.1218 12.9806 21.1244 12.9806C21.5228 12.9833 21.848 12.6626 21.8507 12.2641C21.8507 12.261 21.8507 12.2581 21.8507 12.2549C21.8507 11.8512 21.5288 11.5306 21.1244 11.5306C20.7269 11.529 20.4035 11.85 20.4019 12.2477C20.4019 12.2501 20.4019 12.2525 20.4019 12.2549M18.9042 13.0164C18.9042 13.3853 19.2128 13.6934 19.5814 13.6934C19.95 13.6934 20.2593 13.3853 20.2593 13.0164C20.2593 12.6474 19.9496 12.3388 19.5814 12.3388C19.2131 12.3388 18.9042 12.6483 18.9042 13.0164ZM19.308 11.3403C19.3089 11.6023 19.5209 11.8146 19.7828 11.8158C20.0449 11.8158 20.2593 11.6015 20.2593 11.3405C20.2593 11.0794 20.0451 10.865 19.7828 10.865C19.521 10.8662 19.3091 11.0784 19.308 11.3403ZM23.4796 15.0015C23.4796 14.7639 23.6938 14.5617 23.9287 14.5617C24.1908 14.5617 24.3928 14.7637 24.3928 15.0015C24.3928 15.275 24.191 15.4653 23.9287 15.4653C23.6938 15.4653 23.4796 15.2752 23.4796 15.0015ZM23.7863 28.6725C23.8459 28.6725 23.9173 28.7076 23.9173 28.9224C23.9173 29.1836 23.7985 29.528 23.3727 29.8015C23.0753 30.0035 22.6709 30.1704 22.0762 30.181C22.1711 29.8962 22.2425 29.5989 22.2425 29.3147C22.2425 29.2192 22.2313 29.148 22.2192 29.0413H22.3741C23.3131 29.0413 23.7178 28.6725 23.7861 28.6725M23.8813 27.4954C23.9778 27.414 24.0001 27.2816 24.0001 27.1505V26.8771C24.0001 26.5322 23.4797 26.3308 22.7657 26.3308C21.8976 26.3308 21.4341 26.7221 21.4341 26.8888V27.4365C21.4341 27.6624 21.9572 27.8884 22.5994 27.8884C23.1109 27.8884 23.575 27.7578 23.8815 27.4954M24.4994 27.6265C24.1905 27.8649 23.4681 28.3985 22.2664 28.3985C21.6244 28.3985 21.3386 28.1967 21.2434 28.1967C21.1246 28.1967 20.9935 28.3155 20.863 28.4705C20.5805 28.8036 20.2117 29.422 20.2117 30.099C20.2117 30.5743 20.5805 31.0484 21.2672 31.0484C23.4913 31.0484 25.1538 29.6582 25.1538 28.5298C25.1538 27.8884 24.774 27.6265 24.4996 27.6265M24.9159 17.6289C24.9159 17.9259 25.0114 18.2706 25.3087 18.2706C25.5581 18.2706 25.7723 17.8908 25.7723 17.4745C25.7723 16.999 25.6893 16.63 25.6893 16.4396C25.6893 16.3569 25.7249 16.3213 25.7723 16.3213C25.9509 16.333 26.1177 16.8203 26.3077 16.8203C26.5221 16.8203 26.8406 16.428 26.9713 16.428C27.0071 16.428 27.0186 16.4756 27.0186 16.4872C27.0186 16.6658 26.7453 17.0586 26.7453 17.2126C26.7453 17.3432 27.4348 17.3672 27.4348 17.4861C27.4348 17.6646 26.7123 17.6646 26.3675 17.8192C26.0345 17.9614 25.8321 18.14 25.8321 18.3777C25.8321 18.6154 26.0696 18.6626 26.4033 18.6626C27.1971 18.6626 27.7555 18.235 27.9334 18.235C27.9692 18.235 27.9925 18.2589 27.9925 18.2949C27.9925 18.4137 27.5887 18.8055 27.5887 18.9841C27.5887 19.186 28.326 19.4233 28.3145 19.5421C28.3027 19.5779 28.2546 19.5897 28.1716 19.5897C28.0404 19.5897 27.8385 19.5544 27.6836 19.5544C27.5887 19.5544 27.5057 19.5662 27.4694 19.6136C27.3874 19.7091 27.4932 20.3385 27.3281 20.3385C27.1732 20.3385 26.7686 18.9366 25.8559 18.9366C25.7249 18.9366 25.6301 19.0431 25.6301 19.2218C25.6301 19.6968 26.0937 20.2437 26.5338 20.5054C26.7332 20.636 27.0667 20.7671 27.0667 20.8385C27.0667 20.9804 26.3081 20.8503 26.3081 21.0876C26.3081 21.3019 26.4033 21.6233 26.4033 21.8131C26.4033 21.8727 26.391 21.9436 26.3198 21.9436C26.1775 21.9436 25.8323 21.29 25.6656 21.29C25.5233 21.29 25.2142 21.6819 25.0826 21.6819C25.0473 21.6819 25.024 21.6461 25.024 21.6115C25.024 21.3374 25.4635 20.7197 25.4635 20.1131C25.4635 19.8279 25.4279 19.2095 25.0826 19.2095C24.7975 19.2095 24.4763 19.661 24.3335 20.1131C24.2503 20.3743 24.3099 21.385 24.1196 21.385C23.9412 21.385 23.9885 20.7076 23.7505 20.7076C23.5752 20.7076 23.1948 21.0285 23.0636 21.0285C23.0402 21.0285 23.0162 21.0162 23.0162 20.9927C23.0162 20.8505 23.3609 20.3867 23.3609 20.2913C23.3609 20.1133 22.5762 20.0898 22.5762 19.9469C22.5762 19.8639 22.8852 19.804 23.1708 19.7566C23.775 19.6496 24.6671 19.2095 24.6671 18.5924C24.6671 17.9027 24.0005 17.6052 23.5636 17.3195C23.3373 17.1773 23.088 17.0588 23.088 16.9633C23.088 16.8679 23.3734 16.868 23.4923 16.868C23.6701 16.868 23.8466 16.8561 23.8466 16.7139C23.8466 16.6063 23.8221 16.3931 23.8221 16.2267C23.8221 16.1073 23.8343 16.0118 23.8824 16.0118C24.0601 16.0118 24.3099 16.5946 24.4287 16.5946C24.6191 16.5946 24.8807 16.1193 25.0596 16.1193C25.1182 16.1193 25.1422 16.1552 25.1422 16.2621C25.1422 16.7016 24.9165 17.2008 24.9165 17.6293M19.2482 14.1458C19.3794 15.1562 20.7349 14.645 20.7349 15.8693C20.7349 16.0478 20.6875 16.3095 20.6875 16.5344C20.6875 16.7966 20.7109 17.0227 20.9107 17.0227C21.1106 17.0227 21.1606 16.8798 21.1606 16.6895C21.1606 16.4993 21.1127 16.2613 21.1127 16.1308C21.1127 15.7145 21.41 15.6197 21.5883 15.6197C22.0407 15.6197 22.3855 16.0836 23.0631 16.0836C22.9087 16.8442 21.3385 16.6416 21.3385 17.4745C21.3385 17.8908 21.7551 17.9851 22.0285 17.9851C22.2783 17.9851 22.362 17.9493 22.362 17.736C22.362 17.6166 22.3374 17.4861 22.3374 17.4029C22.3367 17.3508 22.3784 17.3081 22.4306 17.3074C22.4315 17.3074 22.4324 17.3074 22.4332 17.3074C22.695 17.3074 23.9763 18.2824 23.9763 18.5797C23.9763 18.8527 22.6229 19.1261 22.2308 19.1261C22.112 19.1261 22.0879 19.0431 22.0879 18.9956C22.0879 18.9124 22.2899 18.6624 22.2899 18.5201C22.2899 18.4135 22.112 18.3421 21.6357 18.3421C21.4099 18.3421 21.2435 18.3654 21.2435 18.5446C21.2435 18.865 21.7667 19.2573 21.7667 19.5542C21.7667 19.7919 21.6239 19.935 21.2435 19.935C20.9223 19.935 20.4374 19.685 20.4374 19.269C20.4374 18.9364 20.78 18.604 20.78 18.4019C20.78 18.3421 20.7347 18.2466 20.5921 18.2466C20.1521 18.2466 20.033 19.4114 18.4756 19.542C18.7256 19.3166 18.9393 19.067 18.9393 18.5564C18.9393 18.3064 18.8801 18.1037 18.8801 17.831C18.8801 17.4745 19.0464 17.2958 19.284 17.2958C19.7237 17.2958 19.9374 17.9136 20.2233 17.9136C20.3786 17.9136 20.5445 17.7718 20.5445 17.5575C20.5445 16.6539 18.8085 16.7847 18.8085 15.5126C18.8085 15.1677 18.927 14.7402 19.2482 14.1458Z" fill="#0F0E9A"/>
        <path d="M21.5055 21.8726C21.5055 22.0389 21.6243 22.1701 21.791 22.1701C21.9813 22.1701 22.1006 22.0032 22.1006 21.8128C22.1006 21.5637 21.8743 21.2186 21.6599 21.2186C21.5645 21.2186 21.601 21.3615 21.5764 21.516C21.5645 21.6345 21.5055 21.7772 21.5055 21.8725M20.8874 20.2917C22.1357 20.5294 22.8134 21.4686 22.8134 22.3481C22.8134 22.9546 22.4331 23.5122 21.7669 23.5122C21.1606 23.5122 20.7232 23.0971 20.7232 22.4308C20.7232 21.9316 21.1127 21.4087 21.1127 20.8976C21.1127 20.6958 21.0536 20.4936 20.8874 20.2915M19.3082 22.3128C19.4265 22.4308 19.4628 22.5502 19.4628 22.669C19.4628 22.8475 19.3795 23.0378 19.3795 23.2398C19.3795 23.5247 19.5933 23.7746 19.9018 23.7746C20.2353 23.7746 20.4618 23.5124 20.4618 23.2047C20.4618 22.7525 19.9967 22.3128 19.3082 22.3128ZM23.2419 21.5521C23.325 21.6817 23.3606 21.8128 23.3606 21.9316C23.3606 22.2649 23.1348 22.5735 23.1348 22.9189C23.1348 23.3112 23.4322 23.6316 23.8819 23.6316C24.3695 23.6316 24.7024 23.2398 24.7024 22.7761C24.7024 22.1461 24.1319 21.6113 23.242 21.552M19.5933 20.9211C20.1405 20.9924 20.2716 21.1828 20.2716 21.338C20.2716 21.599 20.0335 21.6817 19.807 21.6817C19.6407 21.6817 19.4507 21.6466 19.2486 21.6466C18.987 21.6466 18.7259 21.7055 18.5117 21.9557C18.6663 21.9795 18.8923 22.0863 18.8923 22.3244C18.8923 23.0137 16.9789 22.4429 16.9789 24.2145C16.9789 25.1533 17.9533 26.1763 19.4267 26.1763C20.1881 26.1763 20.6756 25.9263 20.6756 25.6406C20.6756 25.4152 20.2718 25.5693 20.2718 25.3789C20.2718 25.2957 20.4139 25.1407 20.4139 25.01C20.4139 24.9518 20.3665 24.8448 20.2718 24.8448C20.057 24.8448 19.6532 25.1886 18.8326 25.1886C18.1912 25.1886 17.5612 24.8207 17.5612 24.3214C17.5612 24.2148 17.6087 24.1546 17.6799 24.1546C17.7512 24.1546 17.8463 24.2025 17.9294 24.2025C18.0015 24.2025 18.0131 24.1546 18.0131 24.0239C18.0131 23.8931 18.0131 23.5243 18.2384 23.5243C18.4637 23.5243 18.8923 24.357 20.5332 24.357C21.078 24.357 22.1359 24.2499 22.5287 23.8933C22.5164 25.2009 21.4939 26.9242 19.3556 26.9242C17.2173 26.9242 15.945 25.1407 15.945 23.5005C15.945 21.6815 17.4299 20.03 19.4628 20.03C19.9851 20.03 20.4256 20.2075 20.4256 20.4337C20.4256 20.7433 19.653 20.5531 19.5933 20.921M11.9054 7.34634C12.6898 7.34634 13.0456 8.02386 13.0456 8.78475C13.0456 9.11737 12.9514 9.60514 12.7966 9.60514C12.6419 9.60514 12.6658 9.33168 12.6422 9.08174C12.6184 8.76123 12.5593 8.68996 12.4521 8.68996C12.2498 8.68996 12.1196 9.16494 12.1196 9.60514C12.1196 9.87809 12.1671 10.1877 12.3807 10.1877C12.4994 10.1877 12.6065 10.128 12.6775 10.0566C12.63 10.6037 12.2256 11.0795 11.6556 11.0795C10.6101 11.0795 10.2178 9.85456 10.099 9.14124C9.46934 9.80717 8.88739 10.2948 7.84157 10.2948C6.8675 10.2948 6.42749 9.58179 6.42749 8.9041C6.42749 8.70155 6.49872 8.17867 6.74872 8.17867C7.04558 8.17867 6.78451 9.153 7.36629 9.153C7.5091 9.153 7.77016 9.03417 7.91315 8.6424C7.99613 8.40422 8.0442 8.15514 8.0442 7.94083C8.0442 7.61946 7.97262 7.41795 7.73559 7.41795C7.53313 7.41795 7.2833 7.57206 7.20014 7.65526C7.48576 6.79906 8.17473 6.35938 8.93459 6.35938C9.87391 6.35938 10.3727 7.19205 10.3727 8.11899C10.3727 8.24958 10.3604 8.39246 10.3369 8.52305C10.741 7.85712 11.2997 7.34651 11.9056 7.34651M10.9901 8.74877C10.9901 8.54692 10.9427 8.49935 10.8952 8.49935C10.7764 8.49935 10.6459 8.64222 10.4557 8.96308C10.4795 9.39135 10.5511 9.58145 10.6699 9.58145C10.7999 9.58145 10.9901 9.16459 10.9901 8.74877ZM9.36232 9.23603C9.49285 9.23603 9.65969 9.09315 9.96865 8.74877C9.99251 8.59414 9.99251 8.45126 9.99251 8.27345C9.99251 8.03579 9.89707 7.77392 9.75496 7.77392C9.39776 7.77392 9.21986 8.72542 9.21986 8.97553C9.21986 9.1172 9.29074 9.23603 9.36215 9.23603M11.2996 10.2946C11.5964 10.2946 11.9287 9.15283 11.9287 8.4395C11.9287 8.28487 11.9054 8.11882 11.8338 8.11882C11.584 8.11882 11.1682 9.2957 11.1682 9.93742C11.1682 10.1874 11.228 10.2944 11.2994 10.2944M8.3886 9.6406C8.79247 9.6406 9.25495 7.45341 9.25495 7.08463C9.25495 6.98916 9.21968 6.91772 9.1367 6.91772C8.76844 6.91772 8.25754 8.99837 8.25754 9.46192C8.25754 9.54564 8.2814 9.6406 8.3886 9.6406Z" fill="#0F0E9A"/>
        <path d="M9.68312 10.5432C9.17223 10.5432 9.14871 11.1621 9.14871 12.4095C8.76887 11.5895 8.13886 10.7099 7.40199 10.7099C6.9032 10.7099 6.71302 11.0432 6.71302 11.6248C6.71302 11.7441 6.72478 11.9228 6.74881 12.0288C6.80777 11.8273 6.99864 11.7441 7.23567 11.7441C7.74657 11.7441 8.36483 12.1359 8.76853 12.6711C8.30501 12.588 7.85324 12.5048 7.47322 12.5048C7.23567 12.5048 7.02146 12.5287 6.84355 12.6119C6.49881 12.7658 6.03546 13.277 6.03546 14.05C6.03546 14.1688 6.04774 14.2994 6.07159 14.4423C6.48723 13.5148 7.59217 13.0988 8.30518 13.0988C8.44799 13.0988 8.55466 13.1107 8.63765 13.1223C8.26956 13.4549 8.1864 14.0382 8.16254 14.43C8.15079 14.6202 8.07938 14.6325 7.94885 14.6325C7.94885 15.0243 8.25781 15.6074 8.25781 15.9044C8.25781 16.0109 8.19799 16.1064 8.13903 16.1303C8.13903 16.6533 8.66168 17.0339 8.66168 17.3666C8.66168 17.4497 8.63747 17.5213 8.60186 17.5569C8.63765 17.7712 9.21251 18.131 9.28703 18.3111C9.37831 18.5302 9.48101 18.5676 9.54066 18.5676C9.7426 18.5676 10.063 18.3292 10.063 18.1154C10.063 18.0442 10.0038 17.9608 9.95681 17.9252C9.73101 17.7589 9.61172 17.4023 9.5168 17.1646C9.43329 17.1646 9.32558 17.1293 9.28824 16.9897C9.22323 16.7434 9.21995 16.2851 9.12451 16.0109C8.96994 15.9758 8.89871 15.916 8.89871 15.596C8.89871 15.4406 8.99415 14.8346 8.99415 14.6204C8.92275 14.6204 8.82783 14.5728 8.82783 14.43C8.82783 14.0501 9.20836 13.7528 9.31486 13.2654C9.99277 13.7644 10.1584 14.2755 10.1584 14.7277C10.1584 14.9648 10.1226 15.1914 10.0752 15.4055C10.5745 15.1556 11.323 14.7872 11.323 14.0384C11.323 13.5982 11.1212 13.1109 9.77838 12.9205C10.194 12.7658 10.7174 12.6832 11.1567 12.6832C11.9171 12.6832 12.3565 12.9205 12.4515 13.4551C12.606 13.218 12.7255 12.944 12.7255 12.6949C12.7255 12.1118 12.2374 11.7318 11.6199 11.7318C10.8953 11.7318 10.2537 12.1118 9.56434 12.5761C9.87399 11.9344 10.087 11.5537 10.4675 11.5537C10.5272 11.5537 10.5868 11.566 10.646 11.5775C10.5031 11.0547 9.96891 10.5428 9.68329 10.5428M29.7034 19.1138C30.2982 19.1138 30.7733 19.8868 30.7733 20.7904C30.7733 21.7525 30.3215 22.7989 29.5158 23.5116C29.5036 21.9076 27.5405 22.4187 27.5405 21.2536C27.5405 20.7544 27.8977 20.4213 28.326 20.4213C28.7069 20.4213 29.0036 20.5284 29.2178 20.7427C29.0036 20.5408 28.8965 20.2549 28.8965 19.9821C28.8965 19.5295 29.1821 19.1136 29.7034 19.1136M20.8873 6.95303C20.7917 6.7984 20.4375 6.71589 20.2712 6.71589C19.7473 6.71589 19.391 7.08432 19.3196 7.41746C19.2722 7.29811 19.2361 7.15558 19.2361 7.01288C19.2361 6.49 19.5929 5.84811 20.4617 5.84811C21.2202 5.84811 21.517 6.25216 21.6247 6.25216C21.7432 6.25216 21.8623 6.13281 21.9577 6.13281C22.0884 6.13281 22.0884 6.33536 22.0884 6.47841C22.0884 6.95321 21.8747 7.77377 21.3393 8.07111C21.2438 7.86873 21.0537 7.64318 20.7466 7.50083C20.6736 7.47177 20.6264 7.40068 20.6278 7.32215C20.6278 7.19156 20.7466 7.02464 20.8873 6.95321M19.0938 7.82099C19.4031 8.1185 19.6755 8.24927 20.0085 8.24927C20.1401 8.24927 20.2947 8.21398 20.3784 8.21398C20.485 8.21398 20.5563 8.26068 20.5563 8.34405C20.5563 8.47499 20.4375 8.68895 20.2947 8.80813C20.4375 8.86729 20.592 8.8915 20.7587 8.8915C21.4337 8.8915 22.2067 8.46271 22.2067 7.39359C22.3497 7.58333 22.4333 7.97615 22.4333 8.15413C22.4333 9.45002 21.4817 9.94904 20.6041 9.94904C20.0329 9.94904 19.7471 9.75877 19.6754 9.75877C19.4504 9.75877 19.4624 10.2109 19.3076 10.199C19.0339 10.1516 18.785 9.54498 18.785 8.90309C18.785 8.52256 18.8799 8.11833 19.0934 7.82117M8.92274 0.260683C8.92274 0.189246 8.56642 0.11781 8.07938 0.11781C7.30725 0.11781 7.41375 0.760045 6.82021 0.760045C6.22668 0.760045 6.35617 0.0935944 5.57194 0.0935944C5.09649 0.0935944 4.65752 0.177312 4.65752 0.284034C4.65752 0.426906 5.21578 0.367578 5.21578 0.759872C5.21578 1.17569 4.01592 1.29504 4.01592 1.54463C4.01592 1.62731 4.11014 1.66294 4.22892 1.66294C4.49068 1.66294 4.90631 1.54446 5.20368 1.54446C5.37035 1.54446 5.52474 1.57975 5.52474 1.73438C5.52474 2.03171 4.88279 2.56705 4.88279 2.80471C4.88279 2.87615 4.94192 2.90019 5.00157 2.90019C5.23912 2.90019 5.64317 2.29359 6.02353 2.29359C6.6532 2.29359 6.23792 3.63687 6.58197 3.63687C6.92602 3.63687 6.78443 2.31694 7.2948 2.31694C7.71147 2.31694 8.01991 3.23212 8.30501 3.23212C8.37641 3.23212 8.43606 3.17314 8.43606 3.08925C8.43606 2.84017 8.07921 2.32853 8.07921 1.99591C8.07921 1.79388 8.22202 1.6984 8.4122 1.6984C8.68502 1.6984 9.0538 1.8648 9.25504 1.8648C9.32662 1.8648 9.39802 1.84145 9.39802 1.75825C9.39802 1.47302 8.34079 1.16393 8.34079 0.795504C8.34079 0.427079 8.92257 0.426733 8.92257 0.260337M11.7153 1.47354C11.7153 1.68733 12.4639 2.15106 12.8087 2.15106C13.0101 2.15106 13.0695 1.8776 13.0695 1.59168C13.0695 1.23554 12.9157 1.22378 12.606 1.22378C12.2144 1.22378 11.7151 1.33084 11.7151 1.47337M12.9515 3.82679C12.9515 3.11381 11.0232 1.81827 11.0025 1.25941C11.0004 1.20855 11.028 1.15753 11.0711 1.11186C11.4017 0.76385 12.7729 0.509585 12.7729 0.212597C12.7729 0.0584817 12.4874 0.0584817 12.3444 0.0584817C11.2398 0.0584817 9.62382 0.462538 9.62382 0.854832C9.62382 1.24713 11.0732 2.24602 11.0732 2.73328C11.0732 2.86439 10.99 2.91196 10.859 2.91196C10.4554 2.91196 9.57593 2.42418 9.16012 2.42418C8.97012 2.42418 8.89854 2.55495 8.89854 2.74504C8.89854 3.31601 9.57576 4.39741 9.57576 4.7181C9.57576 4.75373 9.564 4.80112 9.51663 4.80112C9.30241 4.80112 8.29325 3.613 7.9364 3.613C7.80569 3.613 7.79411 3.79098 7.79411 4.05269V4.45692C7.79411 4.73038 7.78184 4.89643 7.65199 4.89643C7.34269 4.89643 7.19954 4.02864 6.90337 4.02864C6.60721 4.02864 6.5346 5.57412 6.23774 5.57412C5.89283 5.57412 6.1902 3.87418 5.85721 3.87418C5.48895 3.87418 5.0728 5.00367 4.81139 5.00367C4.71647 5.00367 4.69296 4.90819 4.69296 4.82499C4.69296 4.48079 4.89438 3.92192 4.89438 3.58948C4.89438 3.42256 4.84701 3.3276 4.70472 3.3276C4.33611 3.3276 3.52784 3.92192 3.21941 3.92192C3.17186 3.92192 3.11273 3.89788 3.11273 3.85049C3.11273 3.56543 4.40752 2.66184 4.40752 2.25779C4.40752 1.85373 2.62483 2.12702 2.62483 1.67488C2.62483 1.29504 3.89714 0.902053 3.89714 0.510277C3.89731 0.164858 2.38763 0.0107422 1.80602 0.0107422C1.10408 0.0112611 0.724758 0.0937674 0.724758 0.296314C0.724758 0.605756 2.31691 0.700889 2.31691 0.973835C2.31691 1.24678 0.665283 1.93675 0.665283 2.34081C0.665283 2.69782 2.99344 2.36485 2.99344 2.73362C2.99344 3.13768 0.96231 4.88467 0.96231 5.46723C0.96231 5.59834 1.05775 5.65732 1.18759 5.65732C1.80585 5.65732 3.40907 4.48096 3.84908 4.48096C4.00364 4.48096 4.01574 4.67071 4.01574 4.83693C4.01574 5.14672 3.90872 5.62169 3.90872 5.96659C3.90872 6.24006 3.9803 6.43032 4.21734 6.43032C4.65734 6.43032 5.06122 5.68137 5.35807 5.68137C5.73791 5.68137 5.51298 7.88032 6.08318 7.88032C6.57021 7.88032 6.77215 5.50286 7.08059 5.50286C7.38903 5.50286 7.64006 6.19266 7.92447 6.19266C8.2808 6.19266 8.11482 4.99226 8.49519 4.99226C8.91082 4.99226 10.0984 6.41873 10.6339 6.41873C10.7998 6.41873 10.8588 6.28762 10.8588 6.12071C10.8588 5.49127 9.98015 4.06514 9.98015 3.61317C9.98015 3.49434 10.0152 3.45854 10.146 3.45854C10.61 3.45854 11.9644 4.10043 12.606 4.10043C12.8202 4.10043 12.9513 3.9816 12.9513 3.82696M2.10236 3.13751C2.10236 3.37517 1.19969 4.17117 0.879496 4.17117C0.760719 4.17117 0.724931 4.02882 0.724931 3.89823C0.724931 3.66091 0.831605 3.32777 0.962656 3.22071C1.1167 3.07783 1.47303 3.00761 1.74637 3.00761C1.91218 3.00761 2.10236 3.04237 2.10236 3.13768M10.836 4.36196C10.836 4.77795 12.3213 6.81034 12.6064 6.81034C12.8444 6.81034 13.022 6.39452 13.022 6.03734C13.022 5.94307 12.9987 5.84811 12.9516 5.77633C12.7374 5.47934 11.2284 4.29069 10.8954 4.29069C10.8593 4.29069 10.8356 4.3265 10.8356 4.36196M29.9171 0.760391C29.9171 0.926268 30.0478 1.05669 30.2145 1.05669C30.377 1.05842 30.51 0.928171 30.5119 0.76558C30.5119 0.76385 30.5119 0.762121 30.5119 0.760391C30.5119 0.593476 30.3808 0.462711 30.2145 0.462711C30.052 0.460981 29.9188 0.591227 29.9171 0.753818C29.9171 0.755894 29.9171 0.758142 29.9171 0.760218M27.9807 3.38727C27.9807 2.54301 25.9626 2.32905 25.9626 2.13896C25.9626 1.98484 27.0902 1.72262 27.6719 1.71068C26.781 0.569952 25.5108 0.688782 25.5108 0.486754C25.5108 0.367405 26.4619 0.129745 27.34 0.129745C28.0765 0.129745 28.7658 0.296141 28.7658 0.854659C28.7658 1.16445 28.5165 1.4853 28.5165 1.9608C28.5165 2.22267 28.6465 2.44805 28.9921 2.44805C29.3609 2.44805 29.4441 2.05576 29.4441 1.63942C29.4441 1.29521 29.3843 1.03334 29.3843 0.86694C29.3843 0.367405 29.7269 0.0351308 30.2145 0.0351308C30.6189 0.0351308 30.7138 0.212943 31.3084 0.212943C30.9871 0.403209 30.8687 0.748629 30.8687 0.914506C30.8687 1.41404 31.1899 1.75877 31.1899 2.78119C31.1899 4.6586 29.4318 5.32453 27.2802 5.32453C26.6882 5.32453 26.0578 5.27696 25.4392 5.18218C25.3443 5.17041 25.3204 5.14637 25.3204 5.08722C25.3204 4.93224 26.165 4.84904 26.165 4.08884C26.165 3.79133 26.0696 3.5061 26.0696 3.39904C26.0696 3.34005 26.1171 3.30408 26.165 3.30408C26.3436 3.30408 26.7005 3.99336 27.3639 3.99336C27.5409 3.99336 27.9809 3.93368 27.9809 3.38727M29.988 2.18687C29.988 3.24458 29.2181 4.05321 27.8256 4.27876C27.9809 4.29035 28.1235 4.29035 28.2663 4.29035C29.8931 4.29035 30.4878 3.55367 30.4878 2.936C30.4878 2.59092 30.2975 2.28183 29.988 2.18704M29.1704 17.5093C29.3607 16.9152 29.599 16.4987 29.9885 15.857C29.599 15.6555 28.5642 15.227 28.5642 14.5253C28.5642 13.7054 29.5867 13.0637 29.7983 13.0637C29.8933 13.0637 29.9171 13.1467 29.9171 13.3014C29.9171 13.7289 29.7152 14.4186 29.7152 14.787C29.7152 15.1198 29.9294 15.4412 30.1196 15.4412C30.3213 15.4412 30.8803 14.728 30.8803 14.0264C30.8803 12.7657 29.7743 12.3855 29.4323 12.3855C29.1109 12.3855 28.5286 12.9085 27.1612 12.9085C24.6074 12.9085 24.0245 10.3775 24.0245 9.27134C24.0245 9.22395 24.0362 9.21167 24.048 9.21167C24.1076 9.21167 24.3574 9.52145 25.1657 9.52145C25.5819 9.52145 25.9624 9.41439 26.5692 9.41439C27.9928 9.41439 28.6234 10.4015 29.5034 11.6606C30.0357 11.9934 31.3085 12.5284 31.3085 14.038C31.3085 15.3695 29.8929 16.1067 29.5509 17.5329C30.0955 17.4742 30.4168 16.4985 30.975 16.4985C31.2606 16.4985 31.3917 16.7244 31.3917 17.0818C31.3917 17.6043 31.0943 18.3894 30.5233 18.8767C30.5355 18.8286 30.5355 18.7696 30.5355 18.698C30.5355 18.3654 30.405 17.8904 30.024 17.8904C29.432 17.8904 29.2413 18.5318 28.9086 19.0664C28.5639 17.8546 28.0998 16.7604 27.2686 16.0945C26.4268 15.4169 24.9754 15.7854 24.9754 14.5492C24.9754 14.216 25.1896 13.741 25.1896 13.3603C25.1896 13.2297 25.1657 13.1107 25.0943 13.0154C26.2361 13.4441 25.8315 14.2041 26.5333 14.9887C26.9707 15.4882 28.183 15.9637 28.8853 18.0201C28.8965 17.9605 28.9086 17.8063 28.9086 17.6993C28.9086 15.9397 26.5808 14.2158 26.3789 13.5025C27.7311 13.6572 27.9688 13.9901 28.6113 15.7733C28.742 16.1422 29.1704 17.0576 29.1704 17.5088M28.8613 11.7438C28.8613 11.4942 28.2306 11.4708 28.1714 10.7693C28.1592 10.6622 28.1241 10.4723 27.993 10.4723C27.7788 10.4723 27.9449 11.1259 27.7074 11.1259C27.1612 11.1259 26.9833 10.0559 26.7809 10.0559C26.7328 10.0559 26.6764 10.0917 26.6764 10.2346C26.6764 10.3652 26.7003 10.4489 26.7003 10.6025C26.7003 10.7561 26.6645 10.8642 26.5217 10.8642C26.2005 10.8642 25.9154 10.116 25.6415 10.116C25.5817 10.116 25.5227 10.1516 25.5227 10.2109C25.5227 10.3538 25.7603 10.615 25.7603 10.7461C25.7603 11.0313 24.9876 10.8767 24.9876 11.1145C24.9876 11.2216 25.0943 11.2567 25.2371 11.2567C25.4869 11.2567 25.8798 11.1501 26.0817 11.1501C26.2005 11.1501 26.3791 11.174 26.3791 11.3281C26.3791 11.4943 25.951 11.7081 25.951 11.8628C25.951 11.9342 26.0226 11.9693 26.0817 11.9693C26.4029 11.9693 26.971 11.4113 27.3753 11.4113C27.4461 11.4113 27.6242 11.4469 27.6242 11.5542C27.6242 11.7083 27.2207 11.9813 27.2207 12.2073C27.2207 12.267 27.2565 12.3384 27.3281 12.3384C27.5405 12.3384 27.8262 11.7797 28.2307 11.7797C28.3856 11.7797 28.6116 11.8396 28.7304 11.8396C28.826 11.8396 28.8616 11.7797 28.8616 11.7441" fill="#0F0E9A"/>
        <path d="M20.0089 4.62347C20.1997 4.62347 20.2353 5.08754 20.2715 5.36049C20.295 5.50354 20.319 5.51512 20.3788 5.51512C20.5217 5.51512 20.7469 4.96802 20.8992 4.96802C21.1247 4.96802 21.7317 5.59798 22.7423 5.59798C24.1793 5.59798 25.5348 4.58749 25.5348 2.80487C25.5348 1.02225 24.3216 0.0709174 22.6468 0.0709174C21.851 0.0709174 21.2673 0.463212 20.9584 0.463212C20.7708 0.474974 20.4852 0 20.3424 0C20.2834 0 20.2236 0.118311 20.2236 0.320339C20.2236 0.451623 20.2236 0.867441 20.0808 0.867441C19.7946 0.867441 18.69 0.0475665 18.69 0.344555C18.69 0.618019 19.4266 1.45 19.4266 1.66379C19.4266 1.87758 18.7018 2.08013 18.7018 2.22283C18.7018 2.48401 19.4745 2.5314 19.4745 2.86472C19.4745 3.19803 18.6662 3.45887 18.6662 3.70898C18.6662 3.91049 19.4745 3.76796 19.4745 4.01756C19.4745 4.26715 18.8804 5.09913 18.8804 5.33627C18.8804 5.39612 18.8922 5.39612 18.9395 5.39612C19.1648 5.39612 19.8422 4.62312 20.0089 4.62312M20.3546 2.67445C20.3546 2.54369 19.8901 2.29444 19.8901 2.15139C19.8901 2.12804 19.9134 2.11576 19.9499 2.11576C20.081 2.11576 20.3068 2.16367 20.4853 2.16367C20.6403 2.16367 20.6638 1.49774 20.7805 1.49774C20.8631 1.49774 21.0059 2.12804 21.1377 2.12804C21.2915 2.12804 21.5766 1.94936 21.6959 1.94936C21.7198 1.94936 21.7435 1.9613 21.7435 1.98517C21.7435 2.06819 21.4461 2.38871 21.4461 2.48418C21.4461 2.59125 22.1121 2.72184 22.1121 2.81732C22.1121 2.93615 21.4345 2.92439 21.4345 3.03163C21.4345 3.11431 21.6843 3.44745 21.6843 3.55417C21.6843 3.57821 21.6721 3.59032 21.6486 3.59032C21.5533 3.59032 21.1847 3.42341 21.0775 3.42341C20.947 3.42341 20.7355 3.91066 20.6283 3.91066C20.5925 3.91066 20.5692 3.86309 20.5692 3.80359L20.5446 3.32827C20.5446 3.28071 20.5218 3.23314 20.462 3.23314C20.3192 3.23314 20.0453 3.22086 19.9618 3.22086C19.902 3.22086 19.8787 3.2091 19.8787 3.18575C19.8787 3.09027 20.355 2.75748 20.355 2.67462M22.6712 4.93274C21.8389 4.93274 21.2915 4.51692 21.2915 4.30278C21.2915 4.19571 21.3629 4.1248 21.4584 4.1248C21.72 4.1248 22.2907 4.52851 22.4809 4.52851C22.5282 4.52851 22.5638 4.50498 22.5638 4.43337C22.5638 4.21907 22.3621 3.86292 22.3621 3.68511C22.3621 3.63754 22.3977 3.60191 22.4691 3.60191C22.7896 3.60191 23.2661 3.73302 23.5161 3.73302C23.5988 3.73302 23.6221 3.68511 23.6221 3.63754C23.6221 3.37584 22.8495 2.86472 22.8495 2.71008C22.8495 2.56721 23.81 2.35307 23.81 2.12804C23.81 1.88986 22.5042 2.05609 22.5042 1.83053C22.5042 1.66379 22.754 1.37856 22.754 1.2478C22.754 1.18813 22.7067 1.16477 22.6235 1.16477C22.5165 1.16477 21.9459 1.39067 21.708 1.39067C21.5887 1.39067 21.4459 1.36663 21.4459 1.20041C21.4459 0.92625 21.91 0.629435 22.6351 0.629435C23.8099 0.629435 24.5123 1.43807 24.5123 2.79311C24.5123 4.50498 23.313 4.93291 22.671 4.93291M14.6266 25.4979C14.6266 25.605 14.5908 25.7245 14.4955 25.843C14.3655 25.6053 13.9966 25.4856 13.8299 25.4865C12.6065 25.4865 13.0695 27.2577 11.7625 27.2577C11.2165 27.2577 11.1686 27.1863 10.9665 27.1863C10.8835 27.1863 10.8359 27.2221 10.8359 27.2933C10.8359 27.6031 11.2754 28.3633 12.4995 28.3633C13.7236 28.3633 14.8997 27.6149 14.8997 26.6864C14.8997 26.5323 14.8641 26.3671 14.7927 26.2002C14.8403 26.1287 14.9596 26.0813 15.0668 26.0813C15.2564 26.0813 15.3636 26.2956 15.5415 26.2956C15.7322 26.2956 15.8745 26.1528 15.8745 25.9625C15.8745 25.8079 15.7915 25.7006 15.6487 25.6287C15.7441 25.5579 15.815 25.4386 15.815 25.308C15.815 25.1058 15.6727 24.9166 15.4345 24.9166C15.3275 24.9166 15.2566 24.9524 15.1734 25.0345C15.1501 24.8214 15.0313 24.6192 14.8052 24.6192C14.6268 24.6192 14.4957 24.75 14.4957 24.9525C14.4957 25.1413 14.6268 25.2962 14.6268 25.4983" fill="#0F0E9A"/>
        <path d="M11.4303 25.9501C11.074 25.9501 10.5389 25.5694 10.5389 25.3551C10.5389 25.1764 10.7057 25.0813 10.8357 25.0813C11.1331 25.0813 11.6674 25.45 11.6674 25.7591C11.6674 25.8428 11.6077 25.9501 11.4303 25.9501ZM8.11513 23.2874C9.06568 23.5242 9.54096 24.0353 9.63571 24.6426C9.73114 25.2241 9.84992 25.7001 10.0754 25.938C10.3726 26.2716 10.9543 26.5674 11.4659 26.5674C11.894 26.5674 12.2375 26.4261 12.2375 26.0334C12.2375 25.6052 11.6558 24.6426 10.8001 24.6426C10.7175 24.6426 10.6105 24.6549 10.4917 24.6549C10.3847 24.6549 10.2299 24.631 10.1345 24.5478C9.94484 24.3809 9.88553 23.4892 9.52869 22.9544C9.13709 22.3603 8.70918 22.1934 8.1274 22.1934C7.71177 22.1934 7.24756 22.4193 7.24756 22.7524C7.24756 22.9544 7.35458 23.0968 8.11513 23.2876" fill="#0F0E9A"/>
        <path d="M14.08 21.8362C14.08 21.3014 12.9743 21.2898 12.9743 20.481C12.9743 20.2785 13.1054 19.9339 13.3671 19.5652C13.4741 20.1835 13.7234 20.5046 14.2585 20.7069C15.3156 21.0987 15.4584 21.693 15.4584 22.3237C15.4584 23.3942 14.7098 24.7252 12.7852 24.7252C11.24 24.7252 10.1349 23.3463 10.1349 22.1815C10.1349 21.8601 10.2179 21.5033 10.42 21.5033C10.5984 21.5033 10.6581 21.6456 10.7999 21.7885C11.3353 22.3237 11.9171 22.466 12.7611 22.466C13.5213 22.466 14.0798 22.1575 14.0798 21.8361M14.1272 22.6923C13.7196 22.8791 13.5571 22.8469 13.5571 23.2638C13.5571 23.4177 13.5213 23.6192 13.5213 23.7263C13.5213 23.8686 13.5452 23.9525 13.711 23.9525C14.1394 23.9525 14.8166 23.2274 14.8166 22.6091C14.8166 22.4423 14.7212 22.3719 14.6142 22.3719C14.5188 22.3719 14.4128 22.5617 14.1272 22.6923ZM10.3369 16.6894C10.3369 15.9283 12.1432 15.5243 12.1432 14.585C12.1432 14.4304 12.0841 14.1575 11.9769 13.9551C12.6066 14.3 13.0697 14.8832 13.0697 15.3579C13.0697 16.1784 12.2145 16.5583 12.2145 17.0701C12.2145 17.6644 13.1292 17.7594 13.1292 18.4966C13.1292 19.1021 12.2613 19.8039 12.2613 20.5884C12.2613 21.1944 12.6897 21.6932 13.3431 21.7764C13.1292 21.8243 12.9392 21.8601 12.7373 21.8601C11.5367 21.8601 10.3012 20.874 10.3012 19.6964C10.3012 19.1135 10.5511 18.6035 10.9309 18.2345C11.2639 18.5199 11.5965 18.71 11.8099 18.71C12.0002 18.71 12.0839 18.615 12.0839 18.4723C12.0839 18.0321 10.3369 17.6286 10.3369 16.6892M3.44489 22.5617C3.49503 22.9678 3.87331 23.2754 4.30053 23.228C4.45457 23.211 4.5979 23.1681 4.69334 23.1091C4.78825 23.4891 5.10741 23.7339 5.53843 23.6773C5.97584 23.6204 6.27373 23.2755 6.22619 22.8351C6.21772 22.7407 6.19369 22.6482 6.15496 22.5617C6.15496 22.5617 6.21305 22.556 6.25679 22.5473C6.68556 22.4662 6.97498 22.122 6.93937 21.7057C6.89182 21.2783 6.50818 20.9605 6.1081 21.0096C5.95354 21.0287 5.81021 21.0873 5.71478 21.1712C5.60776 20.815 5.27269 20.5047 4.81488 20.581C4.40201 20.6493 4.1285 21.0001 4.17017 21.4446C4.17656 21.5168 4.19351 21.5993 4.22929 21.682L4.11138 21.6994C3.76439 21.7511 3.38835 22.1002 3.44489 22.562M5.66516 22.094C5.68936 22.3424 5.50748 22.5634 5.25921 22.5876C5.01751 22.6112 4.80053 22.4392 4.76785 22.1986C4.73898 21.9508 4.91654 21.7264 5.16429 21.6975C5.41204 21.6686 5.63628 21.8463 5.66516 22.0941" fill="#0F0E9A"/>
    </g>
    <defs>
        <clipPath id="clip0_3183_13810">
            <rect width="32" height="32" fill="white"/>
        </clipPath>
    </defs>
</svg>
