<svg width="160" height="161" viewBox="0 0 160 161" fill="none" xmlns="http://www.w3.org/2000/svg">
<rect x="0.310547" y="0.941406" width="158.969" height="159.81" rx="28.6145" fill="white"/>
<g clip-path="url(#clip0_3216_3427)">
<rect x="25.0791" y="24.7734" width="110.219" height="110.802" rx="53.6398" fill="white"/>
<path d="M80.5811 24.9414H79.5767V34.4836H80.5811V24.9414Z" fill="#001A6E" fill-opacity="0.8"/>
<path d="M75.5792 25.1429L74.5786 25.2305L75.4196 34.8431L76.4202 34.7555L75.5792 25.1429Z" fill="#001A6E" fill-opacity="0.8"/>
<path d="M70.6904 25.767L69.7012 25.9414L71.3768 35.4441L72.3659 35.2697L70.6904 25.767Z" fill="#001A6E" fill-opacity="0.8"/>
<path d="M65.8745 26.8221L64.9043 27.082L67.4017 36.4026L68.3719 36.1426L65.8745 26.8221Z" fill="#001A6E" fill-opacity="0.8"/>
<path d="M61.1675 28.2971L60.2236 28.6406L63.5225 37.7041L64.4663 37.3605L61.1675 28.2971Z" fill="#001A6E" fill-opacity="0.8"/>
<path d="M56.6066 30.1614L55.6963 30.5859L59.7725 39.3274L60.6828 38.9029L56.6066 30.1614Z" fill="#001A6E" fill-opacity="0.8"/>
<path d="M52.2244 32.4236L51.3545 32.9258L56.1792 41.2823L57.049 40.7801L52.2244 32.4236Z" fill="#001A6E" fill-opacity="0.8"/>
<path d="M48.0601 35.0645L47.2373 35.6406L52.7719 43.5449L53.5947 42.9688L48.0601 35.0645Z" fill="#001A6E" fill-opacity="0.8"/>
<path d="M44.144 38.0575L43.3745 38.7031L49.577 46.0949L50.3464 45.4493L44.144 38.0575Z" fill="#001A6E" fill-opacity="0.8"/>
<path d="M40.4983 41.3718L39.7881 42.082L46.6112 48.9051L47.3214 48.1949L40.4983 41.3718Z" fill="#001A6E" fill-opacity="0.8"/>
<path d="M37.1569 45.0001L36.5112 45.7695L43.903 51.972L44.5487 51.2025L37.1569 45.0001Z" fill="#001A6E" fill-opacity="0.8"/>
<path d="M34.143 48.8999L33.5669 49.7227L41.4677 55.2549L42.0438 54.4321L34.143 48.8999Z" fill="#001A6E" fill-opacity="0.8"/>
<path d="M31.4842 53.052L30.9819 53.9219L39.3385 58.7465L39.8407 57.8767L31.4842 53.052Z" fill="#001A6E" fill-opacity="0.8"/>
<path d="M29.197 57.41L28.7725 58.3203L37.5177 62.3983L37.9422 61.488L29.197 57.41Z" fill="#001A6E" fill-opacity="0.8"/>
<path d="M27.2957 61.9702L26.9521 62.9141L36.0195 66.2143L36.3631 65.2705L27.2957 61.9702Z" fill="#001A6E" fill-opacity="0.8"/>
<path d="M25.7985 66.6665L25.5386 67.6367L34.8591 70.1341L35.1191 69.1639L25.7985 66.6665Z" fill="#001A6E" fill-opacity="0.8"/>
<path d="M24.7174 71.4796L24.543 72.4688L34.0416 74.1436L34.216 73.1544L24.7174 71.4796Z" fill="#001A6E" fill-opacity="0.8"/>
<path d="M24.0597 76.3548L23.9722 77.3555L33.5806 78.1961L33.6681 77.1955L24.0597 76.3548Z" fill="#001A6E" fill-opacity="0.8"/>
<path d="M23.8301 81.187V82.1914H33.3723V81.187H23.8301Z" fill="#001A6E" fill-opacity="0.8"/>
<path d="M24.035 86.2103L24.1226 87.2109L33.731 86.3703L33.6434 85.3697L24.035 86.2103Z" fill="#001A6E" fill-opacity="0.8"/>
<path d="M24.6635 91.1046L24.8379 92.0938L34.3365 90.4189L34.1621 89.4297L24.6635 91.1046Z" fill="#001A6E" fill-opacity="0.8"/>
<path d="M25.7122 95.9165L25.9722 96.8867L35.2927 94.3893L35.0327 93.4191L25.7122 95.9165Z" fill="#001A6E" fill-opacity="0.8"/>
<path d="M27.1814 100.615L27.5249 101.559L36.5923 98.2583L36.2488 97.3145L27.1814 100.615Z" fill="#001A6E" fill-opacity="0.8"/>
<path d="M29.0545 105.176L29.479 106.086L38.2243 102.008L37.7998 101.098L29.0545 105.176Z" fill="#001A6E" fill-opacity="0.8"/>
<path d="M31.3186 109.564L31.8208 110.434L40.1774 105.609L39.6751 104.739L31.3186 109.564Z" fill="#001A6E" fill-opacity="0.8"/>
<path d="M33.9541 113.728L34.5303 114.551L42.4311 109.019L41.855 108.196L33.9541 113.728Z" fill="#001A6E" fill-opacity="0.8"/>
<path d="M36.9486 117.649L37.5942 118.418L44.986 112.216L44.3404 111.446L36.9486 117.649Z" fill="#001A6E" fill-opacity="0.8"/>
<path d="M40.2619 121.282L40.9722 121.992L47.7953 115.169L47.085 114.459L40.2619 121.282Z" fill="#001A6E" fill-opacity="0.8"/>
<path d="M43.8868 124.632L44.6562 125.277L50.856 117.889L50.0866 117.243L43.8868 124.632Z" fill="#001A6E" fill-opacity="0.8"/>
<path d="M47.7929 127.639L48.6157 128.215L54.1479 120.314L53.3251 119.738L47.7929 127.639Z" fill="#001A6E" fill-opacity="0.8"/>
<path d="M51.9373 130.299L52.8071 130.801L57.6318 122.444L56.7619 121.942L51.9373 130.299Z" fill="#001A6E" fill-opacity="0.8"/>
<path d="M56.306 132.587L57.2163 133.012L61.2943 124.266L60.384 123.842L56.306 132.587Z" fill="#001A6E" fill-opacity="0.8"/>
<path d="M60.8579 134.492L61.8018 134.836L65.102 125.769L64.1582 125.425L60.8579 134.492Z" fill="#001A6E" fill-opacity="0.8"/>
<path d="M65.5508 135.994L66.521 136.254L69.0184 126.933L68.0482 126.673L65.5508 135.994Z" fill="#001A6E" fill-opacity="0.8"/>
<path d="M70.3604 137.072L71.3496 137.246L73.0252 127.743L72.036 127.569L70.3604 137.072Z" fill="#001A6E" fill-opacity="0.8"/>
<path d="M75.246 137.729L76.2466 137.816L77.0876 128.204L76.087 128.116L75.246 137.729Z" fill="#001A6E" fill-opacity="0.8"/>
<path d="M80.0791 137.941H81.0835V128.399H80.0791V137.941Z" fill="#001A6E" fill-opacity="0.8"/>
<path d="M85.0995 137.756L86.1001 137.668L85.2591 128.055L84.2585 128.143L85.0995 137.756Z" fill="#001A6E" fill-opacity="0.8"/>
<path d="M89.9884 137.12L90.9775 136.945L89.302 127.443L88.3128 127.617L89.9884 137.12Z" fill="#001A6E" fill-opacity="0.8"/>
<path d="M94.8018 136.076L95.772 135.816L93.2745 126.496L92.3043 126.756L94.8018 136.076Z" fill="#001A6E" fill-opacity="0.8"/>
<path d="M99.5078 134.609L100.452 134.266L97.1514 125.198L96.2075 125.542L99.5078 134.609Z" fill="#001A6E" fill-opacity="0.8"/>
<path d="M104.068 132.729L104.978 132.305L100.9 123.559L99.9897 123.984L104.068 132.729Z" fill="#001A6E" fill-opacity="0.8"/>
<path d="M108.448 130.463L109.318 129.961L104.494 121.604L103.624 122.107L108.448 130.463Z" fill="#001A6E" fill-opacity="0.8"/>
<path d="M112.611 127.83L113.434 127.254L107.901 119.353L107.079 119.929L112.611 127.83Z" fill="#001A6E" fill-opacity="0.8"/>
<path d="M116.533 124.845L117.302 124.199L111.102 116.811L110.333 117.456L116.533 124.845Z" fill="#001A6E" fill-opacity="0.8"/>
<path d="M120.175 121.523L120.886 120.812L114.063 113.989L113.352 114.7L120.175 121.523Z" fill="#001A6E" fill-opacity="0.8"/>
<path d="M123.517 117.898L124.163 117.129L116.771 110.926L116.126 111.696L123.517 117.898Z" fill="#001A6E" fill-opacity="0.8"/>
<path d="M126.533 113.995L127.109 113.172L119.209 107.64L118.632 108.462L126.533 113.995Z" fill="#001A6E" fill-opacity="0.8"/>
<path d="M129.193 109.846L129.695 108.977L121.338 104.152L120.836 105.022L129.193 109.846Z" fill="#001A6E" fill-opacity="0.8"/>
<path d="M131.48 105.485L131.905 104.574L123.16 100.496L122.735 101.407L131.48 105.485Z" fill="#001A6E" fill-opacity="0.8"/>
<path d="M133.381 100.928L133.725 99.9844L124.657 96.6841L124.314 97.628L133.381 100.928Z" fill="#001A6E" fill-opacity="0.8"/>
<path d="M134.878 96.2358L135.138 95.2656L125.817 92.7682L125.557 93.7384L134.878 96.2358Z" fill="#001A6E" fill-opacity="0.8"/>
<path d="M135.958 91.4267L136.132 90.4375L126.634 88.7626L126.459 89.7518L135.958 91.4267Z" fill="#001A6E" fill-opacity="0.8"/>
<path d="M136.615 86.5358L136.702 85.5352L127.094 84.6945L127.006 85.6952L136.615 86.5358Z" fill="#001A6E" fill-opacity="0.8"/>
<path d="M136.83 81.6959V80.6914H127.288V81.6959H136.83Z" fill="#001A6E" fill-opacity="0.8"/>
<path d="M136.641 76.6881L136.554 75.6875L126.945 76.5281L127.033 77.5288L136.641 76.6881Z" fill="#001A6E" fill-opacity="0.8"/>
<path d="M136.016 71.8017L135.841 70.8125L126.343 72.4874L126.517 73.4765L136.016 71.8017Z" fill="#001A6E" fill-opacity="0.8"/>
<path d="M134.962 66.9819L134.702 66.0117L125.381 68.5091L125.641 69.4794L134.962 66.9819Z" fill="#001A6E" fill-opacity="0.8"/>
<path d="M133.496 62.2798L133.153 61.3359L124.085 64.6362L124.429 65.5801L133.496 62.2798Z" fill="#001A6E" fill-opacity="0.8"/>
<path d="M131.619 57.7267L131.194 56.8164L122.449 60.8944L122.874 61.8047L131.619 57.7267Z" fill="#001A6E" fill-opacity="0.8"/>
<path d="M129.359 53.3464L128.857 52.4766L120.5 57.3012L121.003 58.1711L129.359 53.3464Z" fill="#001A6E" fill-opacity="0.8"/>
<path d="M126.723 49.1704L126.146 48.3477L118.246 53.8799L118.822 54.7027L126.723 49.1704Z" fill="#001A6E" fill-opacity="0.8"/>
<path d="M123.732 45.2538L123.086 44.4844L115.697 50.6841L116.343 51.4536L123.732 45.2538Z" fill="#001A6E" fill-opacity="0.8"/>
<path d="M120.411 41.6165L119.701 40.9062L112.878 47.7293L113.588 48.4396L120.411 41.6165Z" fill="#001A6E" fill-opacity="0.8"/>
<path d="M116.783 38.2667L116.014 37.6211L109.811 45.0129L110.581 45.6585L116.783 38.2667Z" fill="#001A6E" fill-opacity="0.8"/>
<path d="M112.887 35.2597L112.064 34.6836L106.53 42.5879L107.353 43.164L112.887 35.2597Z" fill="#001A6E" fill-opacity="0.8"/>
<path d="M108.737 32.5999L107.867 32.0977L103.042 40.4542L103.912 40.9564L108.737 32.5999Z" fill="#001A6E" fill-opacity="0.8"/>
<path d="M104.371 30.3073L103.46 29.8828L99.3825 38.6281L100.293 39.0526L104.371 30.3073Z" fill="#001A6E" fill-opacity="0.8"/>
<path d="M99.8213 28.4099L98.8774 28.0664L95.5786 37.1299L96.5225 37.4734L99.8213 28.4099Z" fill="#001A6E" fill-opacity="0.8"/>
<path d="M95.1235 26.9045L94.1533 26.6445L91.6559 35.9651L92.6261 36.225L95.1235 26.9045Z" fill="#001A6E" fill-opacity="0.8"/>
<path d="M90.311 25.8307L89.3218 25.6562L87.6462 35.159L88.6354 35.3334L90.311 25.8307Z" fill="#001A6E" fill-opacity="0.8"/>
<path d="M85.4264 25.1696L84.4258 25.082L83.5848 34.6946L84.5854 34.7822L85.4264 25.1696Z" fill="#001A6E" fill-opacity="0.8"/>
<path d="M80.3301 125.941C56.3438 125.941 36.8301 106.203 36.8301 81.9414C36.8301 57.6795 56.3438 37.9414 80.3301 37.9414C104.316 37.9414 123.83 57.6795 123.83 81.9414C123.83 106.203 104.316 125.941 80.3301 125.941ZM80.3301 38.5841C56.6924 38.5841 37.464 58.0329 37.464 81.9414C37.464 105.85 56.6924 125.302 80.3301 125.302C103.968 125.302 123.196 105.85 123.196 81.9414C123.196 58.0329 103.968 38.5841 80.3301 38.5841Z" fill="#001A6E"/>
<path d="M52.1266 68.1517C39.9466 78.75 -6.21112 119.602 -15.89 128.95C-16.246 129.294 -16.0046 129.879 -15.5101 129.898L158.185 136.849C158.521 136.863 158.795 136.583 158.775 136.247L158.119 125.214C157.994 123.111 156.252 121.47 154.145 121.47H148.379C148.202 121.47 148.036 121.388 147.929 121.249L145.303 117.851C143.464 115.471 144.826 111.99 147.791 111.491L153.038 110.606C153.539 110.522 153.686 109.872 153.27 109.58L113.785 81.8711C113.067 81.3676 112.085 81.4897 111.513 82.1534L92.6915 103.975C89.8248 107.299 84.642 107.195 81.9109 103.759L53.7414 68.3197C53.3387 67.8131 52.6148 67.7269 52.1266 68.1517Z" fill="#001A6E" stroke="#001A6E" stroke-width="5.68735"/>
</g>
<rect x="27.5791" y="27.2734" width="105.219" height="105.802" rx="51.1398" stroke="#001A6E" stroke-width="5"/>
<defs>
<clipPath id="clip0_3216_3427">
<rect x="25.0791" y="24.7734" width="110.219" height="110.802" rx="53.6398" fill="white"/>
</clipPath>
</defs>
</svg>
