<svg width="114" height="46" viewBox="0 0 114 46" fill="none" xmlns="http://www.w3.org/2000/svg">
<path d="M38.0281 11.9007C38.0281 15.5106 35.1005 18.4369 31.4891 18.4369C27.8777 18.4369 24.9501 15.5106 24.9501 11.9007C24.9501 8.29088 27.8777 5.36453 31.4891 5.36453C35.1005 5.36453 38.0281 8.29088 38.0281 11.9007Z" fill="#72346A"/>
<path d="M39.5489 2.43207C39.5489 3.77527 38.4596 4.86414 37.1158 4.86414C35.772 4.86414 34.6827 3.77527 34.6827 2.43207C34.6827 1.08888 35.772 0 37.1158 0C38.4596 0 39.5489 1.08888 39.5489 2.43207Z" fill="#72346A"/>
<path d="M39.5487 28.3032C39.5487 32.7525 35.9403 36.3594 31.4891 36.3594C27.0378 36.3594 23.4294 32.7525 23.4294 28.3032C23.4294 23.8539 27.0378 20.247 31.4891 20.247C35.9403 20.247 39.5487 23.8539 39.5487 28.3032Z" fill="#72346A"/>
<path d="M6.98689 18.5151C3.13351 18.5151 0.230957 15.8389 0.230957 11.8872C0.230957 8.31056 2.83324 5.35923 6.66161 5.35923C10.5901 5.35923 12.8671 8.26053 12.8671 11.6371V12.6875H3.65897C3.90919 14.3383 5.18531 15.4388 6.96187 15.4388C8.31306 15.4388 9.43905 14.7885 10.0146 13.638L12.7419 15.0136C11.666 17.2396 9.6142 18.5151 6.98689 18.5151ZM3.8091 10.7116H9.33896C9.18883 9.43606 8.1379 8.46062 6.63658 8.46062C5.08522 8.46062 4.05932 9.46107 3.8091 10.7116Z" fill="#72346A"/>
<path d="M48.6902 18.5151C44.8368 18.5151 41.9343 15.8389 41.9343 11.8872C41.9343 8.31056 44.5365 5.35923 48.3649 5.35923C52.2934 5.35923 54.5704 8.26053 54.5704 11.6371V12.6875H45.3623C45.6125 14.3383 46.8886 15.4388 48.6652 15.4388C50.0163 15.4388 51.1423 14.7885 51.7178 13.638L54.4452 15.0136C53.3693 17.2396 51.3175 18.5151 48.6902 18.5151ZM45.5124 10.7116H51.0423C50.8921 9.43606 49.8412 8.46062 48.3399 8.46062C46.7885 8.46062 45.7626 9.46107 45.5124 10.7116Z" fill="#72346A"/>
<path d="M64.879 8.91083C62.8773 8.91083 61.9765 10.5366 61.9765 12.4374V18.19H58.4233V12.0122C58.4233 8.4106 60.5502 5.45927 64.879 5.45927C69.2078 5.45927 71.3847 8.38559 71.3847 12.0122V18.19H67.8316V12.4374C67.8316 10.5366 66.9058 8.91083 64.879 8.91083Z" fill="#72346A"/>
<path d="M18.9967 9.7074C17.7956 9.7074 16.7947 8.73196 16.7947 7.50641C16.7947 6.30587 17.7956 5.30542 18.9967 5.30542C20.1977 5.30542 21.1736 6.30587 21.1736 7.50641C21.1736 8.73196 20.1977 9.7074 18.9967 9.7074ZM17.2201 11.697H20.7732V18.1393H17.2201V11.697Z" fill="#72346A"/>
<path d="M54.2938 40.1514C50.9482 40.1514 49.1657 38.0398 49.1657 34.9685V28.716H46.5057V26.3576H49.1657V22.8749H51.8806V26.3576H57.0361V28.716H51.8806V34.8862C51.8806 36.6413 52.9227 37.6833 54.5406 37.6833C55.4182 37.6833 56.378 37.3543 57.0361 36.8881V39.3836C56.3506 39.8498 55.2811 40.1514 54.2938 40.1514ZM62.4164 39.7949H59.7015V31.7874C59.7015 28.524 61.5663 26.0834 65.0765 26.0834C65.9266 26.0834 66.8041 26.2479 67.4897 26.577V29.2645C66.8315 28.8805 66.0637 28.6886 65.3233 28.6886C63.5133 28.6886 62.4164 29.9226 62.4164 31.8971V39.7949ZM74.5496 40.124C70.6556 40.124 67.8036 36.9429 67.8036 33.0488C67.8036 29.2096 70.8749 26.0285 74.961 26.0285C79.0196 26.0285 82.1184 29.0451 82.1184 33.0488V39.7949H79.5406V37.4365C78.526 39.0819 76.7435 40.124 74.5496 40.124ZM74.961 37.5462C77.4839 37.5462 79.4035 35.5169 79.4035 33.0763C79.4035 30.6082 77.4839 28.5789 74.961 28.5789C72.4655 28.5789 70.5184 30.6082 70.5184 33.0763C70.5184 35.5169 72.4655 37.5462 74.961 37.5462ZM91.3548 40.0966C87.4882 40.1514 84.3345 36.9429 84.3345 33.0488C84.3345 29.1822 87.4882 26.0011 91.3548 26.0285C93.8229 26.0285 96.099 27.1529 97.3331 29.5661L95.0844 30.8276C94.2891 29.3742 92.9454 28.6063 91.3548 28.6063C88.9964 28.6063 87.0494 30.6082 87.0494 33.0488C87.0494 35.5169 88.9964 37.5462 91.3548 37.5462C92.9454 37.5462 94.2891 36.7784 95.0844 35.325L97.3331 36.559C96.099 38.9997 93.8229 40.0966 91.3548 40.0966ZM102.542 39.7949H99.8271V20.16H102.542V31.9519H104.187C104.324 31.6228 104.544 31.3212 104.818 31.047L109.123 26.3576H112.442L106.655 32.6649C106.491 32.802 106.409 32.9117 106.409 33.0488C106.409 33.186 106.491 33.2957 106.655 33.4328L112.414 39.7949H109.069L104.791 35.1056C104.516 34.7765 104.297 34.4474 104.16 34.0909H102.542V39.7949Z" fill="url(#paint0_linear_5517_14240)"/>
<defs>
<linearGradient id="paint0_linear_5517_14240" x1="113.231" y1="11.7948" x2="63.78" y2="12.4566" gradientUnits="userSpaceOnUse">
<stop stop-color="#E265E4"/>
<stop offset="1" stop-color="#FD3102"/>
</linearGradient>
</defs>
</svg>
