<svg width="153" height="40" viewBox="0 0 153 40" fill="none" xmlns="http://www.w3.org/2000/svg">
<g clip-path="url(#clip0_3239_16403)">
<path d="M20.0913 6.00391H19.8398V8.39229H20.0913V6.00391Z" fill="#001A6E"/>
<path d="M18.8393 6.05621L18.5889 6.07812L18.7994 8.48413L19.0498 8.46222L18.8393 6.05621Z" fill="#001A6E"/>
<path d="M17.6148 6.21416L17.3672 6.25781L17.7866 8.63631L18.0342 8.59266L17.6148 6.21416Z" fill="#001A6E"/>
<path d="M16.4098 6.4779L16.167 6.54297L16.7921 8.87587L17.0349 8.8108L16.4098 6.4779Z" fill="#001A6E"/>
<path d="M15.2323 6.84761L14.9961 6.93359L15.8218 9.20214L16.058 9.11616L15.2323 6.84761Z" fill="#001A6E"/>
<path d="M14.0902 7.31172L13.8623 7.41797L14.8826 9.60592L15.1104 9.49967L14.0902 7.31172Z" fill="#001A6E"/>
<path d="M12.9931 7.8782L12.7754 8.00391L13.983 10.0955L14.2007 9.96982L12.9931 7.8782Z" fill="#001A6E"/>
<path d="M11.9511 8.53939L11.7451 8.68359L13.1304 10.662L13.3364 10.5178L11.9511 8.53939Z" fill="#001A6E"/>
<path d="M10.9709 9.28762L10.7783 9.44922L12.3308 11.2994L12.5234 11.1378L10.9709 9.28762Z" fill="#001A6E"/>
<path d="M10.0586 10.1191L9.88086 10.2969L11.5887 12.0047L11.7664 11.8269L10.0586 10.1191Z" fill="#001A6E"/>
<path d="M9.22215 11.0262L9.06055 11.2188L10.9107 12.7712L11.0723 12.5786L9.22215 11.0262Z" fill="#001A6E"/>
<path d="M8.46842 12.0011L8.32422 12.207L10.3018 13.5917L10.446 13.3858L8.46842 12.0011Z" fill="#001A6E"/>
<path d="M7.80246 13.044L7.67676 13.2617L9.76838 14.4693L9.89408 14.2516L7.80246 13.044Z" fill="#001A6E"/>
<path d="M7.2293 14.1354L7.12305 14.3633L9.31196 15.384L9.41821 15.1561L7.2293 14.1354Z" fill="#001A6E"/>
<path d="M6.75396 15.2755L6.66797 15.5117L8.93751 16.3378L9.02349 16.1015L6.75396 15.2755Z" fill="#001A6E"/>
<path d="M6.37855 16.4486L6.31348 16.6914L8.64637 17.3165L8.71144 17.0737L6.37855 16.4486Z" fill="#001A6E"/>
<path d="M6.10811 17.6548L6.06445 17.9023L8.44192 18.3216L8.48558 18.074L6.10811 17.6548Z" fill="#001A6E"/>
<path d="M5.94379 18.8745L5.92188 19.125L8.32683 19.3354L8.34874 19.085L5.94379 18.8745Z" fill="#001A6E"/>
<path d="M5.88672 20.0845V20.3359H8.27511V20.0845H5.88672Z" fill="#001A6E"/>
<path d="M5.93805 21.3433L5.95996 21.5938L8.36491 21.3833L8.343 21.1329L5.93805 21.3433Z" fill="#001A6E"/>
<path d="M6.09502 22.5649L6.13867 22.8125L8.51614 22.3933L8.47248 22.1457L6.09502 22.5649Z" fill="#001A6E"/>
<path d="M6.35778 23.7728L6.42285 24.0156L8.75575 23.3905L8.69068 23.1477L6.35778 23.7728Z" fill="#001A6E"/>
<path d="M6.72554 24.9473L6.81152 25.1836L9.08106 24.3575L8.99507 24.1213L6.72554 24.9473Z" fill="#001A6E"/>
<path d="M7.19355 26.0886L7.2998 26.3164L9.48871 25.2957L9.38246 25.0678L7.19355 26.0886Z" fill="#001A6E"/>
<path d="M7.76101 27.1846L7.88672 27.4023L9.97834 26.1947L9.85263 25.977L7.76101 27.1846Z" fill="#001A6E"/>
<path d="M8.42025 28.2277L8.56445 28.4336L10.542 27.0489L10.3978 26.843L8.42025 28.2277Z" fill="#001A6E"/>
<path d="M9.17043 29.2137L9.33203 29.4062L11.1822 27.8538L11.0206 27.6612L9.17043 29.2137Z" fill="#001A6E"/>
<path d="M9.99898 30.1191L10.1768 30.2969L11.8846 28.5891L11.7068 28.4113L9.99898 30.1191Z" fill="#001A6E"/>
<path d="M10.906 30.9595L11.0986 31.1211L12.6504 29.2718L12.4578 29.1102L10.906 30.9595Z" fill="#001A6E"/>
<path d="M11.8849 31.7113L12.0908 31.8555L13.4755 29.8779L13.2696 29.7337L11.8849 31.7113Z" fill="#001A6E"/>
<path d="M12.9209 32.3782L13.1387 32.5039L14.3463 30.4123L14.1285 30.2866L12.9209 32.3782Z" fill="#001A6E"/>
<path d="M14.0153 32.9484L14.2432 33.0547L15.2639 30.8658L15.036 30.7595L14.0153 32.9484Z" fill="#001A6E"/>
<path d="M15.1544 33.4257L15.3906 33.5117L16.2167 31.2422L15.9804 31.1562L15.1544 33.4257Z" fill="#001A6E"/>
<path d="M16.3294 33.8021L16.5723 33.8672L17.1974 31.5343L16.9545 31.4692L16.3294 33.8021Z" fill="#001A6E"/>
<path d="M17.5327 34.0735L17.7803 34.1172L18.1997 31.7387L17.9521 31.695L17.5327 34.0735Z" fill="#001A6E"/>
<path d="M18.7554 34.2359L19.0059 34.2578L19.2164 31.8518L18.9659 31.8299L18.7554 34.2359Z" fill="#001A6E"/>
<path d="M19.9654 34.2891H20.2168V31.9007H19.9654V34.2891Z" fill="#001A6E"/>
<path d="M21.2222 34.2407L21.4727 34.2188L21.2622 31.8127L21.0117 31.8347L21.2222 34.2407Z" fill="#001A6E"/>
<path d="M22.4458 34.0827L22.6934 34.0391L22.274 31.6606L22.0264 31.7042L22.4458 34.0827Z" fill="#001A6E"/>
<path d="M23.6507 33.8229L23.8936 33.7578L23.2685 31.4249L23.0256 31.49L23.6507 33.8229Z" fill="#001A6E"/>
<path d="M24.8282 33.4571L25.0645 33.3711L24.2384 31.1016L24.0022 31.1875L24.8282 33.4571Z" fill="#001A6E"/>
<path d="M25.9694 32.9852L26.1973 32.8789L25.1766 30.69L24.9487 30.7962L25.9694 32.9852Z" fill="#001A6E"/>
<path d="M27.0665 32.4187L27.2842 32.293L26.0766 30.2014L25.8589 30.3271L27.0665 32.4187Z" fill="#001A6E"/>
<path d="M28.1085 31.7575L28.3145 31.6133L26.9298 29.6357L26.7238 29.7799L28.1085 31.7575Z" fill="#001A6E"/>
<path d="M29.0896 31.0132L29.2822 30.8516L27.7304 29.0022L27.5379 29.1638L29.0896 31.0132Z" fill="#001A6E"/>
<path d="M30.0019 30.1778L30.1797 30L28.4719 28.2922L28.2941 28.47L30.0019 30.1778Z" fill="#001A6E"/>
<path d="M30.8384 29.2707L31 29.0781L29.1499 27.5257L28.9883 27.7183L30.8384 29.2707Z" fill="#001A6E"/>
<path d="M31.5921 28.2958L31.7363 28.0898L29.7588 26.7051L29.6146 26.9111L31.5921 28.2958Z" fill="#001A6E"/>
<path d="M32.2581 27.2568L32.3838 27.0391L30.2922 25.8315L30.1665 26.0492L32.2581 27.2568Z" fill="#001A6E"/>
<path d="M32.8312 26.1654L32.9375 25.9375L30.7486 24.9168L30.6423 25.1446L32.8312 26.1654Z" fill="#001A6E"/>
<path d="M33.3066 25.0253L33.3926 24.7891L31.123 23.963L31.0371 24.1993L33.3066 25.0253Z" fill="#001A6E"/>
<path d="M33.682 23.8483L33.7471 23.6055L31.4142 22.9804L31.3491 23.2232L33.682 23.8483Z" fill="#001A6E"/>
<path d="M33.9524 22.646L33.9961 22.3984L31.6186 21.9792L31.575 22.2268L33.9524 22.646Z" fill="#001A6E"/>
<path d="M34.1168 21.4223L34.1387 21.1719L31.7337 20.9615L31.7118 21.2119L34.1168 21.4223Z" fill="#001A6E"/>
<path d="M34.1699 20.2123V19.9609H31.7815V20.2123H34.1699Z" fill="#001A6E"/>
<path d="M34.1225 18.9614L34.1006 18.7109L31.6956 18.9213L31.7175 19.1718L34.1225 18.9614Z" fill="#001A6E"/>
<path d="M33.9665 17.7359L33.9229 17.4883L31.5454 17.9075L31.589 18.1551L33.9665 17.7359Z" fill="#001A6E"/>
<path d="M33.7028 16.528L33.6377 16.2852L31.3048 16.9103L31.3699 17.1531L33.7028 16.528Z" fill="#001A6E"/>
<path d="M33.336 15.3495L33.25 15.1133L30.9805 15.9393L31.0664 16.1756L33.336 15.3495Z" fill="#001A6E"/>
<path d="M32.866 14.2122L32.7598 13.9844L30.5709 15.0051L30.6771 15.2329L32.866 14.2122Z" fill="#001A6E"/>
<path d="M32.3005 13.1162L32.1748 12.8984L30.0832 14.106L30.2089 14.3238L32.3005 13.1162Z" fill="#001A6E"/>
<path d="M31.6403 12.0692L31.4961 11.8633L29.5185 13.248L29.6627 13.4539L31.6403 12.0692Z" fill="#001A6E"/>
<path d="M30.8921 11.091L30.7305 10.8984L28.8811 12.4502L29.0427 12.6428L30.8921 11.091Z" fill="#001A6E"/>
<path d="M30.0606 10.1778L29.8828 10L28.175 11.7078L28.3528 11.8856L30.0606 10.1778Z" fill="#001A6E"/>
<path d="M29.1526 9.34129L28.96 9.17969L27.4075 11.0298L27.6001 11.1914L29.1526 9.34129Z" fill="#001A6E"/>
<path d="M28.1766 8.58951L27.9707 8.44531L26.5854 10.4237L26.7913 10.5679L28.1766 8.58951Z" fill="#001A6E"/>
<path d="M27.1386 7.92258L26.9209 7.79688L25.7133 9.88849L25.931 10.0142L27.1386 7.92258Z" fill="#001A6E"/>
<path d="M26.0452 7.34844L25.8174 7.24219L24.7967 9.4311L25.0245 9.53735L26.0452 7.34844Z" fill="#001A6E"/>
<path d="M24.9071 6.87505L24.6709 6.78906L23.8452 9.05761L24.0815 9.1436L24.9071 6.87505Z" fill="#001A6E"/>
<path d="M23.7311 6.49866L23.4883 6.43359L22.8632 8.76649L23.106 8.83156L23.7311 6.49866Z" fill="#001A6E"/>
<path d="M22.5269 6.22725L22.2793 6.18359L21.8599 8.56209L22.1075 8.60575L22.5269 6.22725Z" fill="#001A6E"/>
<path d="M21.3042 6.06488L21.0537 6.04297L20.8432 8.44897L21.0937 8.47088L21.3042 6.06488Z" fill="#001A6E"/>
<path d="M20.0285 31.2878C14.0248 31.2878 9.14062 26.3475 9.14062 20.2748C9.14062 14.2021 14.0248 9.26172 20.0285 9.26172C26.0322 9.26172 30.9164 14.2021 30.9164 20.2748C30.9164 26.3475 26.0322 31.2878 20.0285 31.2878ZM20.0285 9.42259C14.1121 9.42259 9.29929 14.2906 9.29929 20.2748C9.29929 26.259 14.1121 31.1279 20.0285 31.1279C25.9449 31.1279 30.7578 26.259 30.7578 20.2748C30.7578 14.2906 25.9449 9.42259 20.0285 9.42259Z" fill="#001A6E"/>
<path d="M10.8689 16.7151C7.81134 19.3758 -3.72856 29.5894 -6.1496 31.9277C-6.2387 32.0138 -6.17827 32.1601 -6.0545 32.165L37.4208 33.9048C37.5049 33.9082 37.5736 33.8382 37.5686 33.7541L37.4044 30.9926C37.373 30.4662 36.937 30.0553 36.4096 30.0553H34.9663C34.9222 30.0553 34.8806 30.0349 34.8537 30L34.1964 29.1495C33.7362 28.5539 34.0771 27.6827 34.8193 27.5576L36.1324 27.3363C36.2579 27.3151 36.2947 27.1525 36.1905 27.0794L26.3191 20.1521C26.1347 20.0227 25.8816 20.0587 25.7406 20.2345L21.0539 26.0786C20.3396 26.9693 18.9778 26.9497 18.2893 26.0389L11.2776 16.7624C11.1783 16.631 10.9931 16.607 10.8689 16.7151Z" fill="#001A6E" stroke="#001A6E" stroke-width="1.42353"/>
</g>
<rect x="6.82496" y="6.58668" width="26.3359" height="26.4818" rx="12.8001" stroke="#001A6E" stroke-width="1.25148"/>
<path d="M40.1172 16H44.4609L48.7578 26.0312L53.0391 16H57.3672L50.1328 33H47.3672L40.1172 16ZM61.5547 9C62.3047 9 62.9453 9.27083 63.4766 9.8125C64.0182 10.3542 64.2891 11.0104 64.2891 11.7812C64.2891 12.5417 64.0234 13.1927 63.4922 13.7344C62.9609 14.2656 62.3255 14.5312 61.5859 14.5312C60.8255 14.5312 60.1745 14.2604 59.6328 13.7188C59.1016 13.1667 58.8359 12.5 58.8359 11.7188C58.8359 10.9688 59.1016 10.3281 59.6328 9.79688C60.1641 9.26562 60.8047 9 61.5547 9ZM59.4141 16H63.6953V33H59.4141V16ZM80.1328 16H84.3828V33H80.1328V31.2031C79.2995 31.9948 78.4609 32.5677 77.6172 32.9219C76.7839 33.2656 75.8776 33.4375 74.8984 33.4375C72.7005 33.4375 70.7995 32.5885 69.1953 30.8906C67.5911 29.1823 66.7891 27.0625 66.7891 24.5312C66.7891 21.9062 67.5651 19.7552 69.1172 18.0781C70.6693 16.401 72.5547 15.5625 74.7734 15.5625C75.7943 15.5625 76.7526 15.7552 77.6484 16.1406C78.5443 16.526 79.3724 17.1042 80.1328 17.875V16ZM75.6484 19.5C74.3255 19.5 73.2266 19.9688 72.3516 20.9062C71.4766 21.8333 71.0391 23.026 71.0391 24.4844C71.0391 25.9531 71.4818 27.1615 72.3672 28.1094C73.263 29.0573 74.362 29.5312 75.6641 29.5312C77.0078 29.5312 78.1224 29.0677 79.0078 28.1406C79.8932 27.2031 80.3359 25.9792 80.3359 24.4688C80.3359 22.9896 79.8932 21.7917 79.0078 20.875C78.1224 19.9583 77.0026 19.5 75.6484 19.5ZM87.6953 16H91.3516V18.1406C91.7474 17.2969 92.2734 16.6562 92.9297 16.2188C93.5859 15.7812 94.3047 15.5625 95.0859 15.5625C95.638 15.5625 96.2161 15.7083 96.8203 16L95.4922 19.6719C94.9922 19.4219 94.5807 19.2969 94.2578 19.2969C93.6016 19.2969 93.0443 19.7031 92.5859 20.5156C92.138 21.3281 91.9141 22.9219 91.9141 25.2969L91.9297 26.125V33H87.6953V16ZM111.508 16H115.758V30.5625C115.758 33.4375 115.18 35.5521 114.023 36.9062C112.471 38.7396 110.133 39.6562 107.008 39.6562C105.341 39.6562 103.94 39.4479 102.805 39.0312C101.669 38.6146 100.711 38 99.9297 37.1875C99.1484 36.3854 98.5703 35.4062 98.1953 34.25H102.898C103.315 34.7292 103.852 35.0885 104.508 35.3281C105.164 35.5781 105.94 35.7031 106.836 35.7031C107.982 35.7031 108.904 35.526 109.602 35.1719C110.299 34.8177 110.789 34.3594 111.07 33.7969C111.362 33.2344 111.508 32.2656 111.508 30.8906C110.758 31.6406 109.971 32.1823 109.148 32.5156C108.326 32.8385 107.393 33 106.352 33C104.07 33 102.143 32.1771 100.57 30.5312C98.9974 28.8854 98.2109 26.8021 98.2109 24.2812C98.2109 21.5833 99.0443 19.4167 100.711 17.7812C102.221 16.3021 104.023 15.5625 106.117 15.5625C107.096 15.5625 108.018 15.7448 108.883 16.1094C109.758 16.4635 110.633 17.0521 111.508 17.875V16ZM107.086 19.5469C105.742 19.5469 104.633 20 103.758 20.9062C102.883 21.8021 102.445 22.9323 102.445 24.2969C102.445 25.7135 102.893 26.875 103.789 27.7812C104.685 28.6875 105.81 29.1406 107.164 29.1406C108.487 29.1406 109.576 28.6979 110.43 27.8125C111.294 26.9271 111.727 25.7656 111.727 24.3281C111.727 22.9115 111.294 21.7604 110.43 20.875C109.565 19.9896 108.451 19.5469 107.086 19.5469ZM128.055 15.5625C129.659 15.5625 131.164 15.9635 132.57 16.7656C133.987 17.5677 135.091 18.6562 135.883 20.0312C136.674 21.4062 137.07 22.8906 137.07 24.4844C137.07 26.0885 136.669 27.5885 135.867 28.9844C135.076 30.3802 133.992 31.474 132.617 32.2656C131.242 33.0469 129.727 33.4375 128.07 33.4375C125.633 33.4375 123.549 32.5729 121.82 30.8438C120.102 29.1042 119.242 26.9948 119.242 24.5156C119.242 21.8594 120.216 19.6458 122.164 17.875C123.872 16.3333 125.836 15.5625 128.055 15.5625ZM128.117 19.5781C126.794 19.5781 125.69 20.0417 124.805 20.9688C123.93 21.8854 123.492 23.0625 123.492 24.5C123.492 25.9792 123.924 27.1771 124.789 28.0938C125.664 29.0104 126.768 29.4688 128.102 29.4688C129.435 29.4688 130.544 29.0052 131.43 28.0781C132.315 27.151 132.758 25.9583 132.758 24.5C132.758 23.0417 132.32 21.8594 131.445 20.9531C130.581 20.0365 129.471 19.5781 128.117 19.5781ZM150.977 18.375L148.336 21.0156C147.263 19.9531 146.289 19.4219 145.414 19.4219C144.935 19.4219 144.56 19.526 144.289 19.7344C144.018 19.9323 143.883 20.1823 143.883 20.4844C143.883 20.7135 143.966 20.9271 144.133 21.125C144.31 21.3125 144.737 21.5729 145.414 21.9062L146.977 22.6875C148.622 23.5 149.753 24.3281 150.367 25.1719C150.982 26.0156 151.289 27.0052 151.289 28.1406C151.289 29.651 150.732 30.9115 149.617 31.9219C148.513 32.9323 147.029 33.4375 145.164 33.4375C142.685 33.4375 140.706 32.4688 139.227 30.5312L141.852 27.6719C142.352 28.2552 142.935 28.7292 143.602 29.0938C144.279 29.4479 144.878 29.625 145.398 29.625C145.961 29.625 146.414 29.4896 146.758 29.2188C147.102 28.9479 147.273 28.6354 147.273 28.2812C147.273 27.625 146.654 26.9844 145.414 26.3594L143.977 25.6406C141.227 24.2552 139.852 22.5208 139.852 20.4375C139.852 19.0938 140.367 17.9479 141.398 17C142.44 16.0417 143.768 15.5625 145.383 15.5625C146.487 15.5625 147.523 15.8073 148.492 16.2969C149.471 16.776 150.299 17.4688 150.977 18.375Z" fill="#001A6E"/>
<defs>
<clipPath id="clip0_3239_16403">
<rect x="6.19922" y="5.96094" width="27.5874" height="27.7333" rx="13.4259" fill="white"/>
</clipPath>
</defs>
</svg>
