<svg width="146" height="49" viewBox="0 0 146 49" fill="none" xmlns="http://www.w3.org/2000/svg">
<path d="M39.4415 12.9181C39.4415 16.6849 36.3866 19.7385 32.6182 19.7385C28.8498 19.7385 25.7949 16.6849 25.7949 12.9181C25.7949 9.15135 28.8498 6.09777 32.6182 6.09777C36.3866 6.09777 39.4415 9.15135 39.4415 12.9181Z" fill="#72346A"/>
<path d="M41.0284 3.03781C41.0284 4.43941 39.8917 5.57563 38.4895 5.57563C37.0873 5.57563 35.9506 4.43941 35.9506 3.03781C35.9506 1.63622 37.0873 0.5 38.4895 0.5C39.8917 0.5 41.0284 1.63622 41.0284 3.03781Z" fill="#72346A"/>
<path d="M41.0282 30.0338C41.0282 34.6766 37.2629 38.4403 32.6181 38.4403C27.9733 38.4403 24.208 34.6766 24.208 30.0338C24.208 25.391 27.9733 21.6273 32.6181 21.6273C37.2629 21.6273 41.0282 25.391 41.0282 30.0338Z" fill="#72346A"/>
<path d="M7.05065 19.8202C3.02972 19.8202 0.000976562 17.0276 0.000976562 12.904C0.000976562 9.17188 2.71641 6.09224 6.71122 6.09224C10.8105 6.09224 13.1865 9.11969 13.1865 12.643V13.7392H3.57803C3.83913 15.4617 5.17074 16.61 7.02454 16.61C8.43447 16.61 9.60942 15.9314 10.2099 14.7309L13.0559 16.1663C11.9332 18.4891 9.79219 19.8202 7.05065 19.8202ZM3.73469 11.6774H9.50498C9.34832 10.3463 8.2517 9.32848 6.68511 9.32848C5.0663 9.32848 3.99579 10.3724 3.73469 11.6774Z" fill="#72346A"/>
<path d="M50.5671 19.8202C46.5462 19.8202 43.5175 17.0276 43.5175 12.904C43.5175 9.17188 46.2329 6.09224 50.2277 6.09224C54.327 6.09224 56.703 9.11969 56.703 12.643V13.7392H47.0945C47.3556 15.4617 48.6872 16.61 50.541 16.61C51.951 16.61 53.1259 15.9314 53.7264 14.7309L56.5724 16.1663C55.4497 18.4891 53.3087 19.8202 50.5671 19.8202ZM47.2512 11.6774H53.0215C52.8648 10.3463 51.7682 9.32848 50.2016 9.32848C48.5828 9.32848 47.5123 10.3724 47.2512 11.6774Z" fill="#72346A"/>
<path d="M67.4598 9.79825C65.371 9.79825 64.4311 11.4947 64.4311 13.4782V19.4809H60.7235V13.0345C60.7235 9.27628 62.9428 6.19663 67.4598 6.19663C71.9768 6.19663 74.2484 9.25018 74.2484 13.0345V19.4809H70.5408V13.4782C70.5408 11.4947 69.5747 9.79825 67.4598 9.79825Z" fill="#72346A"/>
<path d="M19.5826 10.6295C18.3293 10.6295 17.2849 9.61161 17.2849 8.33277C17.2849 7.08004 18.3293 6.03609 19.5826 6.03609C20.8359 6.03609 21.8542 7.08004 21.8542 8.33277C21.8542 9.61161 20.8359 10.6295 19.5826 10.6295ZM17.7288 12.7056H21.4364V19.428H17.7288V12.7056Z" fill="#72346A"/>
<path d="M56.4139 42.1796C52.9228 42.1796 51.0628 39.9762 51.0628 36.7713V30.247H48.2871V27.7861H51.0628V24.1519H53.8957V27.7861H59.2754V30.247H53.8957V36.6855C53.8957 38.5168 54.9831 39.6042 56.6714 39.6042C57.5871 39.6042 58.5887 39.2608 59.2754 38.7744V41.3784C58.5601 41.8648 57.4441 42.1796 56.4139 42.1796ZM67.9296 42.151C63.8662 42.151 60.8902 38.8316 60.8902 34.7682C60.8902 30.7621 64.0951 27.4427 68.3588 27.4427C72.5939 27.4427 75.8274 30.5904 75.8274 34.7682V41.8076H73.1376V39.3467C72.0788 41.0636 70.2188 42.151 67.9296 42.151ZM68.3588 39.4612C70.9914 39.4612 72.9945 37.3436 72.9945 34.7968C72.9945 32.2215 70.9914 30.1039 68.3588 30.1039C65.7548 30.1039 63.7231 32.2215 63.7231 34.7968C63.7231 37.3436 65.7548 39.4612 68.3588 39.4612ZM79.5993 21.3476H82.4322V41.8076H79.5993V21.3476ZM89.5939 41.8076H86.761V21.319H89.5939V33.6236H91.3108C91.4539 33.2802 91.6828 32.9655 91.969 32.6793L96.4616 27.7861H99.924L93.8862 34.3676C93.7145 34.5107 93.6287 34.6252 93.6287 34.7682C93.6287 34.9113 93.7145 35.0258 93.8862 35.1688L99.8954 41.8076H96.4043L91.9403 36.9144C91.6542 36.571 91.4253 36.2276 91.2822 35.8556H89.5939V41.8076Z" fill="url(#paint0_linear_7221_7769)"/>
<defs>
<linearGradient id="paint0_linear_7221_7769" x1="101.001" y1="12.8075" x2="61.8796" y2="13.2009" gradientUnits="userSpaceOnUse">
<stop stop-color="#E265E4"/>
<stop offset="1" stop-color="#FD3102"/>
</linearGradient>
</defs>
</svg>
