<svg width="144" height="37" viewBox="0 0 144 37" fill="none" xmlns="http://www.w3.org/2000/svg">
<path d="M28.1398 1.46436C35.7142 1.46436 38.5729 6.78428 38.5729 12.9055V21.44L31.3813 15.5206V14.2352C31.3813 11.4608 30.4297 9.17087 27.5233 9.17087C24.6168 9.17087 23.648 11.4608 23.648 14.2352V24.3637H15.1048V14.2352C15.1048 11.4608 14.136 9.17087 11.2295 9.17087C8.32304 9.17087 7.31018 11.4608 7.31018 14.2352V24.3637H0V12.87C0 6.74883 3.65509 1.46436 11.2295 1.46436C15.369 1.46436 18.3635 3.09373 19.7287 5.78001C21.1819 3.09373 24.3526 1.46436 28.1398 1.46436Z" fill="#263773"/>
<path d="M39.957 1.21997C47.2424 1.22002 52.5322 6.29927 52.5322 13.3108V22.0295C52.5322 26.104 51.1149 29.5075 48.7354 31.8928C46.3567 34.277 43.042 35.6184 39.2959 35.6184C33.6776 35.6183 29.5371 33.1106 27.4258 28.6125L27.2383 28.2141L27.627 28.0061L34.1885 24.4827L34.6162 24.2522C30.37 22.5975 27.3819 18.4976 27.3818 13.2668C27.3818 6.61003 32.8452 1.21997 39.957 1.21997ZM43.5303 23.9602C42.4092 24.6175 40.8933 25.049 38.9004 25.0491C37.3864 25.0491 35.9432 24.7687 34.6211 24.2542L34.8291 24.6946C35.161 25.3999 35.6262 26.089 36.3066 26.6018C36.9805 27.1096 37.8935 27.466 39.1641 27.4661C40.4943 27.4661 41.5588 27.0489 42.3164 26.301C42.89 25.7348 43.3124 24.9538 43.5303 23.9602Z" fill="#263773" stroke="#FCFDFF" stroke-width="0.930087"/>
<ellipse cx="39.5101" cy="12.6254" rx="4.18539" ry="3.72035" fill="white"/>
<path d="M47.9873 1.7229L52.875 2.33423L52.9619 2.34888C53.3588 2.44 53.6385 2.80013 53.6289 3.20728L53.6221 3.29517L53.0107 8.18286C52.9214 8.89607 52.0657 9.17433 51.5713 8.70728L51.4775 8.60376L47.2012 3.10571C46.7599 2.53832 47.168 1.73578 47.8477 1.71606L47.9873 1.7229Z" fill="#8BD7BC" stroke="white" stroke-width="0.946169"/>
<path d="M53.3308 6.27268L53.8227 2.33726C53.8364 2.22766 53.7586 2.1277 53.649 2.114L49.7136 1.62207" stroke="#8BD7BC" stroke-width="0.6" stroke-linecap="round"/>
<path d="M54.45 3.94733L54.7821 1.29064C54.7889 1.23584 54.7501 1.18586 54.6953 1.17901L52.0386 0.846924" stroke="#8BD7BC" stroke-width="0.3" stroke-linecap="round"/>
<path d="M76.9219 1.93632V15H73.6V7.96428L70.4274 13.2084H70.0915L66.9376 7.98294V15H63.597V1.93632H66.9376L70.2595 7.51638L73.6 1.93632H76.9219ZM78.9971 1.93632H82.3377V15H78.9971V1.93632ZM97.3621 7.51638V8.84141C97.3621 10.7574 96.7587 12.3126 95.5518 13.507C94.3574 14.689 92.8022 15.2799 90.8862 15.2799C88.8458 15.2799 87.1662 14.6268 85.8474 13.3204C84.541 12.014 83.8878 10.4028 83.8878 8.48682C83.8878 6.57082 84.541 4.95341 85.8474 3.6346C87.1537 2.31579 88.7712 1.65638 90.6996 1.65638C91.9189 1.65638 93.0324 1.9301 94.0402 2.47753C95.0604 3.02496 95.8566 3.75279 96.429 4.66103L93.5923 6.28466C93.331 5.87409 92.9453 5.54438 92.4352 5.29555C91.9375 5.04672 91.3714 4.9223 90.7369 4.9223C89.7043 4.9223 88.8582 5.25823 88.1988 5.93007C87.5394 6.60192 87.2097 7.46039 87.2097 8.50548C87.2097 9.51325 87.5332 10.3655 88.1802 11.0622C88.8396 11.759 89.7603 12.1073 90.9422 12.1073C92.4601 12.1073 93.4616 11.535 93.9469 10.3904H90.7743V7.51638H97.3621ZM105.729 15L103.452 10.7823H102.258V15H98.917V1.93632H104.143C105.474 1.93632 106.587 2.36555 107.483 3.22403C108.391 4.07005 108.845 5.14625 108.845 6.45262C108.845 7.23644 108.646 7.95805 108.248 8.61746C107.85 9.26442 107.309 9.78075 106.625 10.1664L109.312 15H105.729ZM102.258 5.01562V7.94561H104.105C104.516 7.95805 104.852 7.82742 105.113 7.5537C105.374 7.27999 105.505 6.9254 105.505 6.48995C105.505 6.05449 105.374 5.6999 105.113 5.42619C104.852 5.15247 104.516 5.01562 104.105 5.01562H102.258ZM118.623 15L118.063 13.1151H113.715L113.155 15H109.534L113.845 1.93632H117.914L122.225 15H118.623ZM114.573 10.2411H117.204L115.879 5.79944L114.573 10.2411ZM131.203 1.93632V5.16492H127.974V15H124.634V5.16492H121.405V1.93632H131.203ZM135.755 11.8647H140.813V15H132.415V1.93632H140.719V5.05294H135.755V6.86319H140.253V9.94249H135.755V11.8647Z" fill="#8BD7BC"/>
<path d="M76.5674 26.5164V27.8414C76.5674 29.7574 75.9639 31.3126 74.7571 32.507C73.5627 33.689 72.0075 34.2799 70.0915 34.2799C68.0511 34.2799 66.3715 33.6268 65.0527 32.3204C63.7463 31.014 63.0931 29.4028 63.0931 27.4868C63.0931 25.5708 63.7463 23.9534 65.0527 22.6346C66.359 21.3158 67.9764 20.6564 69.9049 20.6564C71.1242 20.6564 72.2377 20.9301 73.2454 21.4775C74.2657 22.025 75.0619 22.7528 75.6342 23.661L72.7976 25.2847C72.5363 24.8741 72.1506 24.5444 71.6405 24.2956C71.1428 24.0467 70.5767 23.9223 69.9422 23.9223C68.9096 23.9223 68.0635 24.2582 67.4041 24.9301C66.7447 25.6019 66.415 26.4604 66.415 27.5055C66.415 28.5133 66.7385 29.3655 67.3855 30.0622C68.0449 30.759 68.9655 31.1073 70.1475 31.1073C71.6654 31.1073 72.6669 30.535 73.1521 29.3904H69.9795V26.5164H76.5674ZM81.4629 30.7714H85.9605V34H78.1223V20.9363H81.4629V30.7714ZM97.7215 32.3204C96.4027 33.6268 94.7853 34.2799 92.8693 34.2799C90.9532 34.2799 89.3296 33.6268 87.9984 32.3204C86.6796 31.0016 86.0202 29.3842 86.0202 27.4682C86.0202 25.5522 86.6796 23.941 87.9984 22.6346C89.3296 21.3158 90.9532 20.6564 92.8693 20.6564C94.7853 20.6564 96.4027 21.3158 97.7215 22.6346C99.0527 23.941 99.7184 25.5522 99.7184 27.4682C99.7184 29.3842 99.0527 31.0016 97.7215 32.3204ZM90.3498 30.0249C91.0217 30.6843 91.8615 31.014 92.8693 31.014C93.877 31.014 94.7168 30.6843 95.3887 30.0249C96.0605 29.3531 96.3964 28.5008 96.3964 27.4682C96.3964 26.4355 96.0605 25.5895 95.3887 24.9301C94.7168 24.2582 93.877 23.9223 92.8693 23.9223C91.8615 23.9223 91.0217 24.2582 90.3498 24.9301C89.678 25.5895 89.3421 26.4355 89.3421 27.4682C89.3421 28.5008 89.678 29.3531 90.3498 30.0249ZM109.517 27.2442C110.612 27.8912 111.159 28.8678 111.159 30.1742C111.159 31.3313 110.761 32.2582 109.965 32.9549C109.168 33.6516 108.105 34 106.773 34H101.268V20.9363H106.419C107.725 20.9363 108.77 21.2722 109.554 21.9441C110.338 22.6035 110.73 23.5055 110.73 24.6501C110.73 25.745 110.326 26.6097 109.517 27.2442ZM106.326 23.9223H104.609V25.9752H106.326C106.624 25.9752 106.873 25.8881 107.072 25.7139C107.284 25.5273 107.389 25.2722 107.389 24.9487C107.389 24.6377 107.29 24.3889 107.091 24.2022C106.892 24.0156 106.637 23.9223 106.326 23.9223ZM106.68 31.014C107.016 31.014 107.29 30.9145 107.501 30.7154C107.713 30.5039 107.819 30.2364 107.819 29.9129C107.819 29.577 107.713 29.3095 107.501 29.1105C107.29 28.9114 107.016 28.8119 106.68 28.8119H104.609V31.014H106.68ZM115.835 30.8647H120.893V34H112.495V20.9363H120.799V24.0529H115.835V25.8632H120.333V28.9425H115.835V30.8647Z" fill="#263773"/>
</svg>
