<svg width="235" height="235" viewBox="0 0 235 235" fill="none" xmlns="http://www.w3.org/2000/svg">
<g clip-path="url(#clip0_1947_4169)">
<path d="M117.4 234.8C182.238 234.8 234.8 182.238 234.8 117.4C234.8 52.5618 182.238 0 117.4 0C52.5618 0 0 52.5618 0 117.4C0 182.238 52.5618 234.8 117.4 234.8Z" fill="url(#paint0_linear_1947_4169)"/>
<path d="M114.75 119.68C95.36 119.68 79.65 103.15 79.65 82.7499C79.65 62.3499 95.37 45.8199 114.75 45.8199C134.13 45.8199 149.86 62.3499 149.86 82.7499C149.86 103.15 134.14 119.68 114.75 119.68ZM160.27 169.5C160.27 194.61 139.89 214.97 114.75 214.97C89.61 214.97 69.23 194.61 69.23 169.5C69.23 144.39 89.61 124.03 114.75 124.03C139.89 124.03 160.27 144.39 160.27 169.5ZM140.36 32.4899C140.36 25.5799 146.12 19.8199 153.04 19.8199C159.96 19.8199 165.58 25.5799 165.58 32.4899C165.58 39.3999 159.96 45.1599 153.04 45.1599C146.12 45.1599 140.36 39.5499 140.36 32.4899Z" fill="white"/>
</g>
<defs>
<linearGradient id="paint0_linear_1947_4169" x1="-4.86" y1="128.1" x2="224.39" y2="108.04" gradientUnits="userSpaceOnUse">
<stop stop-color="#FC299E"/>
<stop offset="0.12" stop-color="#FC2595"/>
<stop offset="0.28" stop-color="#FD2492"/>
<stop offset="0.67" stop-color="#FA1965"/>
<stop offset="0.89" stop-color="#FB1C35"/>
<stop offset="1" stop-color="#FA2C07"/>
</linearGradient>
<clipPath id="clip0_1947_4169">
<rect width="234.81" height="234.81" fill="white"/>
</clipPath>
</defs>
</svg>
