<svg width="55" height="37" viewBox="0 0 55 37" fill="none" xmlns="http://www.w3.org/2000/svg">
<path d="M28.1398 1.46436C35.7142 1.46436 38.5729 6.78428 38.5729 12.9055V21.44L31.3813 15.5206V14.2352C31.3813 11.4608 30.4297 9.17087 27.5233 9.17087C24.6168 9.17087 23.648 11.4608 23.648 14.2352V24.3637H15.1048V14.2352C15.1048 11.4608 14.136 9.17087 11.2295 9.17087C8.32304 9.17087 7.31018 11.4608 7.31018 14.2352V24.3637H0V12.87C0 6.74883 3.65509 1.46436 11.2295 1.46436C15.369 1.46436 18.3635 3.09373 19.7287 5.78001C21.1819 3.09373 24.3526 1.46436 28.1398 1.46436Z" fill="#263773"/>
<path d="M39.957 1.21997C47.2424 1.22002 52.5322 6.29927 52.5322 13.3108V22.0295C52.5322 26.104 51.1149 29.5075 48.7354 31.8928C46.3567 34.277 43.042 35.6184 39.2959 35.6184C33.6776 35.6183 29.5371 33.1106 27.4258 28.6125L27.2383 28.2141L27.627 28.0061L34.1885 24.4827L34.6162 24.2522C30.37 22.5975 27.3819 18.4976 27.3818 13.2668C27.3818 6.61003 32.8452 1.21997 39.957 1.21997ZM43.5303 23.9602C42.4092 24.6175 40.8933 25.049 38.9004 25.0491C37.3864 25.0491 35.9432 24.7687 34.6211 24.2542L34.8291 24.6946C35.161 25.3999 35.6262 26.089 36.3066 26.6018C36.9805 27.1096 37.8935 27.466 39.1641 27.4661C40.4943 27.4661 41.5588 27.0489 42.3164 26.301C42.89 25.7348 43.3124 24.9538 43.5303 23.9602Z" fill="#263773" stroke="#FCFDFF" stroke-width="0.930087"/>
<ellipse cx="39.5101" cy="12.6254" rx="4.18539" ry="3.72035" fill="white"/>
<path d="M47.9873 1.7229L52.875 2.33423L52.9619 2.34888C53.3588 2.44 53.6385 2.80013 53.6289 3.20728L53.6221 3.29517L53.0107 8.18286C52.9214 8.89607 52.0657 9.17433 51.5713 8.70728L51.4775 8.60376L47.2012 3.10571C46.7599 2.53832 47.168 1.73578 47.8477 1.71606L47.9873 1.7229Z" fill="#8BD7BC" stroke="white" stroke-width="0.946169"/>
<path d="M53.3308 6.27268L53.8227 2.33726C53.8364 2.22766 53.7586 2.1277 53.649 2.114L49.7136 1.62207" stroke="#8BD7BC" stroke-width="0.6" stroke-linecap="round"/>
<path d="M54.45 3.94733L54.7821 1.29064C54.7889 1.23584 54.7501 1.18586 54.6953 1.17901L52.0386 0.846924" stroke="#8BD7BC" stroke-width="0.3" stroke-linecap="round"/>
</svg>
